<?xml version="1.0" encoding="UTF-8" standalone="no"?><svg xmlns="http://www.w3.org/2000/svg" xmlns:xlink="http://www.w3.org/1999/xlink" contentStyleType="text/css" height="460px" preserveAspectRatio="none" style="width:240px;height:460px;background:#FFFFFF;" version="1.1" viewBox="0 0 240 460" width="240px" zoomAndPan="magnify"><defs/><g><ellipse cx="120" cy="20" fill="#222222" rx="10" ry="10" style="stroke:#222222;stroke-width:1.0;"/><rect fill="#F1F1F1" height="47.9375" rx="12.5" ry="12.5" style="stroke:#181818;stroke-width:0.5;" width="218" x="11" y="50"/><text fill="#000000" font-family="sans-serif" font-size="12" lengthAdjust="spacing" textLength="198" x="21" y="71.1387">Solicitar formulário de dispensa</text><text fill="#000000" font-family="sans-serif" font-size="12" lengthAdjust="spacing" textLength="90" x="21" y="85.1074">de diciplinas à</text><text fill="#000000" font-family="sans-serif" font-size="12" font-weight="bold" lengthAdjust="spacing" textLength="27" x="115" y="85.1074">UPE</text><rect fill="#F1F1F1" height="33.9688" rx="12.5" ry="12.5" style="stroke:#181818;stroke-width:0.5;" width="139" x="50.5" y="117.9375"/><text fill="#000000" font-family="sans-serif" font-size="12" lengthAdjust="spacing" textLength="119" x="60.5" y="139.0762">Receber formulário</text><rect fill="#F1F1F1" height="47.9375" rx="12.5" ry="12.5" style="stroke:#181818;stroke-width:0.5;" width="197" x="21.5" y="171.9063"/><text fill="#000000" font-family="sans-serif" font-size="12" lengthAdjust="spacing" textLength="177" x="31.5" y="193.0449">Solicitar documentos para a</text><text fill="#000000" font-family="sans-serif" font-size="12" lengthAdjust="spacing" textLength="77" x="31.5" y="207.0137">dispensa ao</text><text fill="#000000" font-family="sans-serif" font-size="12" font-weight="bold" lengthAdjust="spacing" textLength="83" x="112.5" y="207.0137">IES anterior</text><rect fill="#F1F1F1" height="33.9688" rx="12.5" ry="12.5" style="stroke:#181818;stroke-width:0.5;" width="154" x="43" y="239.8438"/><text fill="#000000" font-family="sans-serif" font-size="12" lengthAdjust="spacing" textLength="134" x="53" y="260.9824">Receber documentos</text><rect fill="#F1F1F1" height="47.9375" rx="12.5" ry="12.5" style="stroke:#181818;stroke-width:0.5;" width="157" x="41.5" y="293.8125"/><text fill="#000000" font-family="sans-serif" font-size="12" lengthAdjust="spacing" textLength="132" x="51.5" y="314.9512">Preencher formulário</text><text fill="#000000" font-family="sans-serif" font-size="12" lengthAdjust="spacing" textLength="137" x="51.5" y="328.9199">e anexar documentos</text><rect fill="#F1F1F1" height="47.9375" rx="12.5" ry="12.5" style="stroke:#181818;stroke-width:0.5;" width="209" x="15.5" y="361.75"/><text fill="#000000" font-family="sans-serif" font-size="12" lengthAdjust="spacing" textLength="139" x="25.5" y="382.8887">Realizar solicitação de</text><text fill="#000000" font-family="sans-serif" font-size="12" lengthAdjust="spacing" textLength="158" x="25.5" y="396.8574">dispensa de disciplinas à</text><text fill="#000000" font-family="sans-serif" font-size="12" font-weight="bold" lengthAdjust="spacing" textLength="27" x="187.5" y="396.8574">UPE</text><ellipse cx="120" cy="439.6875" rx="10" ry="10" style="stroke:#222222;stroke-width:1.5;fill:none;"/><line style="stroke:#222222;stroke-width:2.5;fill:none;" x1="113.8128" x2="126.1872" y1="433.5003" y2="445.8747"/><line style="stroke:#222222;stroke-width:2.5;fill:none;" x1="126.1872" x2="113.8128" y1="433.5003" y2="445.8747"/><line style="stroke:#181818;stroke-width:1.0;fill:none;" x1="120" x2="120" y1="30" y2="50"/><polygon fill="#181818" points="116,40,120,50,124,40,120,44" style="stroke:#181818;stroke-width:1.0;"/><line style="stroke:#181818;stroke-width:1.0;" x1="120" x2="120" y1="97.9375" y2="117.9375"/><polygon fill="#181818" points="116,107.9375,120,117.9375,124,107.9375,120,111.9375" style="stroke:#181818;stroke-width:1.0;"/><line style="stroke:#181818;stroke-width:1.0;" x1="120" x2="120" y1="151.9063" y2="171.9063"/><polygon fill="#181818" points="116,161.9063,120,171.9063,124,161.9063,120,165.9063" style="stroke:#181818;stroke-width:1.0;"/><line style="stroke:#181818;stroke-width:1.0;" x1="120" x2="120" y1="219.8438" y2="239.8438"/><polygon fill="#181818" points="116,229.8438,120,239.8438,124,229.8438,120,233.8438" style="stroke:#181818;stroke-width:1.0;"/><line style="stroke:#181818;stroke-width:1.0;" x1="120" x2="120" y1="273.8125" y2="293.8125"/><polygon fill="#181818" points="116,283.8125,120,293.8125,124,283.8125,120,287.8125" style="stroke:#181818;stroke-width:1.0;"/><line style="stroke:#181818;stroke-width:1.0;" x1="120" x2="120" y1="341.75" y2="361.75"/><polygon fill="#181818" points="116,351.75,120,361.75,124,351.75,120,355.75" style="stroke:#181818;stroke-width:1.0;"/><line style="stroke:#181818;stroke-width:1.0;" x1="120" x2="120" y1="409.6875" y2="429.6875"/><polygon fill="#181818" points="116,419.6875,120,429.6875,124,419.6875,120,423.6875" style="stroke:#181818;stroke-width:1.0;"/><!--MD5=[786089e189d0907257cf46cf1ca6695d]
@startuml Solicitação de dispensa pelo aluno.
start
:Solicitar formulário de dispensa
de diciplinas à **UPE**;
:Receber formulário;
:Solicitar documentos para a
dispensa ao **IES anterior**;
:Receber documentos;
:Preencher formulário
e anexar documentos;
:Realizar solicitação de
dispensa de disciplinas à **UPE**;
end
@enduml

PlantUML version 1.2022.3(Tue Mar 29 13:10:57 BRT 2022)
(GPL source distribution)
Java Runtime: OpenJDK Runtime Environment
JVM: Eclipse OpenJ9 VM
Default Encoding: UTF-8
Language: pt
Country: BR
--></g></svg>