<?xml version="1.0" encoding="UTF-8" standalone="no"?><svg xmlns="http://www.w3.org/2000/svg" xmlns:xlink="http://www.w3.org/1999/xlink" contentStyleType="text/css" height="522px" preserveAspectRatio="none" style="width:297px;height:522px;background:#FFFFFF;" version="1.1" viewBox="0 0 297 522" width="297px" zoomAndPan="magnify"><defs/><g><ellipse cx="135" cy="20" fill="#222222" rx="10" ry="10" style="stroke:#222222;stroke-width:1.0;"/><rect fill="#F1F1F1" height="33.9688" rx="12.5" ry="12.5" style="stroke:#181818;stroke-width:0.5;" width="248" x="11" y="117.9375"/><text fill="#000000" font-family="sans-serif" font-size="12" lengthAdjust="spacing" textLength="228" x="21" y="139.0762">Disponibizar documentos solicitados</text><rect fill="#F1F1F1" height="33.9688" rx="12.5" ry="12.5" style="stroke:#181818;stroke-width:0.5;" width="182" x="44" y="220.3086"/><text fill="#000000" font-family="sans-serif" font-size="12" lengthAdjust="spacing" textLength="162" x="54" y="241.4473">Resolução de pendências</text><polygon fill="#F1F1F1" points="54.5,171.9063,215.5,171.9063,227.5,183.9063,215.5,195.9063,54.5,195.9063,42.5,183.9063,54.5,171.9063" style="stroke:#181818;stroke-width:0.5;"/><text fill="#000000" font-family="sans-serif" font-size="11" lengthAdjust="spacing" textLength="21" x="139" y="206.1167">sim</text><text fill="#000000" font-family="sans-serif" font-size="11" lengthAdjust="spacing" textLength="161" x="54.5" y="187.7144">O aluno possui pendências?</text><text fill="#000000" font-family="sans-serif" font-size="11" lengthAdjust="spacing" textLength="21" x="227.5" y="181.312">não</text><polygon fill="#F1F1F1" points="135,274.2773,147,286.2773,135,298.2773,123,286.2773,135,274.2773" style="stroke:#181818;stroke-width:0.5;"/><rect fill="#F1F1F1" height="33.9688" rx="12.5" ry="12.5" style="stroke:#181818;stroke-width:0.5;" width="151" x="59.5" y="318.2773"/><text fill="#000000" font-family="sans-serif" font-size="12" lengthAdjust="spacing" textLength="131" x="69.5" y="339.416">Conferir documentos</text><rect fill="#F1F1F1" height="47.9375" rx="12.5" ry="12.5" style="stroke:#181818;stroke-width:0.5;" width="169" x="50.5" y="50"/><text fill="#000000" font-family="sans-serif" font-size="12" lengthAdjust="spacing" textLength="145" x="64.5" y="71.1387">Receber a solitação de</text><text fill="#000000" font-family="sans-serif" font-size="12" lengthAdjust="spacing" textLength="98" x="60.5" y="85.1074">documentos do</text><text fill="#000000" font-family="sans-serif" font-size="12" font-weight="bold" lengthAdjust="spacing" textLength="40" x="162.5" y="85.1074">aluno</text><polygon fill="#F1F1F1" points="68.5,372.2461,201.5,372.2461,213.5,384.2461,201.5,396.2461,68.5,396.2461,56.5,384.2461,68.5,372.2461" style="stroke:#181818;stroke-width:0.5;"/><text fill="#000000" font-family="sans-serif" font-size="11" lengthAdjust="spacing" textLength="133" x="68.5" y="388.0542">Todos os documentos?</text><text fill="#000000" font-family="sans-serif" font-size="11" lengthAdjust="spacing" textLength="21" x="213.5" y="381.6519">não</text><rect fill="#F1F1F1" height="33.9688" rx="12.5" ry="12.5" style="stroke:#181818;stroke-width:0.5;" width="221" x="24.5" y="437.645"/><text fill="#000000" font-family="sans-serif" font-size="12" lengthAdjust="spacing" textLength="157" x="34.5" y="458.7837">Entregar documentos ao</text><text fill="#000000" font-family="sans-serif" font-size="12" font-weight="bold" lengthAdjust="spacing" textLength="40" x="195.5" y="458.7837">aluno</text><ellipse cx="135" cy="501.6138" rx="10" ry="10" style="stroke:#222222;stroke-width:1.5;fill:none;"/><line style="stroke:#222222;stroke-width:2.5;fill:none;" x1="128.8128" x2="141.1872" y1="495.4266" y2="507.801"/><line style="stroke:#222222;stroke-width:2.5;fill:none;" x1="141.1872" x2="128.8128" y1="495.4266" y2="507.801"/><line style="stroke:#181818;stroke-width:1.0;fill:none;" x1="135" x2="135" y1="195.9063" y2="220.3086"/><polygon fill="#181818" points="131,210.3086,135,220.3086,139,210.3086,135,214.3086" style="stroke:#181818;stroke-width:1.0;"/><line style="stroke:#181818;stroke-width:1.0;" x1="227.5" x2="239.5" y1="183.9063" y2="183.9063"/><polygon fill="#181818" points="235.5,227.293,239.5,237.293,243.5,227.293,239.5,231.293" style="stroke:#181818;stroke-width:1.0;"/><line style="stroke:#181818;stroke-width:1.0;" x1="239.5" x2="239.5" y1="183.9063" y2="286.2773"/><line style="stroke:#181818;stroke-width:1.0;" x1="239.5" x2="147" y1="286.2773" y2="286.2773"/><polygon fill="#181818" points="157,282.2773,147,286.2773,157,290.2773,153,286.2773" style="stroke:#181818;stroke-width:1.0;"/><line style="stroke:#181818;stroke-width:1.0;" x1="135" x2="135" y1="254.2773" y2="274.2773"/><polygon fill="#181818" points="131,264.2773,135,274.2773,139,264.2773,135,268.2773" style="stroke:#181818;stroke-width:1.0;"/><line style="stroke:#181818;stroke-width:1.0;" x1="135" x2="135" y1="151.9063" y2="171.9063"/><polygon fill="#181818" points="131,161.9063,135,171.9063,139,161.9063,135,165.9063" style="stroke:#181818;stroke-width:1.0;"/><line style="stroke:#181818;stroke-width:1.0;" x1="135" x2="135" y1="298.2773" y2="318.2773"/><polygon fill="#181818" points="131,308.2773,135,318.2773,139,308.2773,135,312.2773" style="stroke:#181818;stroke-width:1.0;"/><line style="stroke:#181818;stroke-width:1.0;" x1="135" x2="135" y1="97.9375" y2="117.9375"/><polygon fill="#181818" points="131,107.9375,135,117.9375,139,107.9375,135,111.9375" style="stroke:#181818;stroke-width:1.0;"/><line style="stroke:#181818;stroke-width:1.0;" x1="213.5" x2="271" y1="384.2461" y2="384.2461"/><polygon fill="#181818" points="267,241.3086,271,231.3086,275,241.3086,271,237.3086" style="stroke:#181818;stroke-width:1.0;"/><line style="stroke:#181818;stroke-width:1.0;" x1="271" x2="271" y1="73.9688" y2="384.2461"/><line style="stroke:#181818;stroke-width:1.0;" x1="271" x2="219.5" y1="73.9688" y2="73.9688"/><polygon fill="#181818" points="229.5,69.9688,219.5,73.9688,229.5,77.9688,225.5,73.9688" style="stroke:#181818;stroke-width:1.0;"/><line style="stroke:#181818;stroke-width:1.0;" x1="135" x2="135" y1="352.2461" y2="372.2461"/><polygon fill="#181818" points="131,362.2461,135,372.2461,139,362.2461,135,366.2461" style="stroke:#181818;stroke-width:1.0;"/><line style="stroke:#181818;stroke-width:1.0;" x1="135" x2="135" y1="30" y2="50"/><polygon fill="#181818" points="131,40,135,50,139,40,135,44" style="stroke:#181818;stroke-width:1.0;"/><line style="stroke:#181818;stroke-width:1.0;" x1="135" x2="135" y1="396.2461" y2="437.645"/><polygon fill="#181818" points="131,427.645,135,437.645,139,427.645,135,431.645" style="stroke:#181818;stroke-width:1.0;"/><text fill="#000000" font-family="sans-serif" font-size="11" lengthAdjust="spacing" textLength="21" x="139" y="417.5508">sim</text><line style="stroke:#181818;stroke-width:1.0;" x1="135" x2="135" y1="471.6138" y2="491.6138"/><polygon fill="#181818" points="131,481.6138,135,491.6138,139,481.6138,135,485.6138" style="stroke:#181818;stroke-width:1.0;"/><!--MD5=[bab2e262ee4cbce9e4089de5c00c1662]
@startuml Solicitação de documentos para reaproveitamento de diciplina.
start
repeat: Receber a solitação de\ndocumentos do **aluno**;
    :Disponibizar documentos solicitados;
    if (O aluno possui pendências?) then (sim)
        :Resolução de pendências;
    else (não)
    endif
    :Conferir documentos;
repeat while (Todos os documentos?) is (não)
->sim;
:Entregar documentos ao **aluno**;
end
@enduml

PlantUML version 1.2022.3(Tue Mar 29 13:10:57 BRT 2022)
(GPL source distribution)
Java Runtime: OpenJDK Runtime Environment
JVM: Eclipse OpenJ9 VM
Default Encoding: UTF-8
Language: pt
Country: BR
--></g></svg>