<?xml version="1.0" encoding="UTF-8" standalone="no"?><svg xmlns="http://www.w3.org/2000/svg" xmlns:xlink="http://www.w3.org/1999/xlink" contentStyleType="text/css" height="1087px" preserveAspectRatio="none" style="width:1194px;height:1087px;background:#FFFFFF;" version="1.1" viewBox="0 0 1194 1087" width="1194px" zoomAndPan="magnify"><defs/><g><!--MD5=[7442f3b126ee602ae02566c1a49e158a]
cluster api--><g id="cluster_api"><polygon points="16,510,26,500,954,500,954,1060.5,944,1070.5,16,1070.5,16,510" style="stroke:#181818;stroke-width:1.0;fill:none;"/><line style="stroke:#181818;stroke-width:1.0;fill:none;" x1="944" x2="954" y1="510" y2="500"/><line style="stroke:#181818;stroke-width:1.0;fill:none;" x1="16" x2="944" y1="510" y2="510"/><line style="stroke:#181818;stroke-width:1.0;fill:none;" x1="944" x2="944" y1="510" y2="1070.5"/><text fill="#000000" font-family="sans-serif" font-size="14" font-weight="bold" lengthAdjust="spacing" textLength="93" x="434.5" y="525.9951">SisREP - API</text></g><!--MD5=[3ff016c1aa5003d713567a073e2181a6]
cluster application--><g id="cluster_application"><rect height="342.5" rx="2.5" ry="2.5" style="stroke:#181818;stroke-width:1.0;fill:none;" width="418" x="48" y="556"/><rect height="10" style="stroke:#181818;stroke-width:1.0;fill:none;" width="15" x="446" y="561"/><rect height="2" style="stroke:#181818;stroke-width:1.0;fill:none;" width="4" x="444" y="563"/><rect height="2" style="stroke:#181818;stroke-width:1.0;fill:none;" width="4" x="444" y="567"/><text fill="#000000" font-family="sans-serif" font-size="14" font-weight="bold" lengthAdjust="spacing" textLength="85" x="214.5" y="581.9951">application</text></g><!--MD5=[e7d553f54000421ad81f78c0e239f8a9]
cluster dataprovider--><g id="cluster_dataprovider"><path d="M250.5,599 L352.5,599 A3.75,3.75 0 0 1 355,601.5 L362,621.2969 L439.5,621.2969 A2.5,2.5 0 0 1 442,623.7969 L442,700.5 A2.5,2.5 0 0 1 439.5,703 L250.5,703 A2.5,2.5 0 0 1 248,700.5 L248,601.5 A2.5,2.5 0 0 1 250.5,599 " style="stroke:#000000;stroke-width:1.5;fill:none;"/><line style="stroke:#000000;stroke-width:1.5;fill:none;" x1="248" x2="362" y1="621.2969" y2="621.2969"/><text fill="#000000" font-family="sans-serif" font-size="14" font-weight="bold" lengthAdjust="spacing" textLength="101" x="252" y="613.9951">dataprovider</text></g><!--MD5=[b1ccf45ed20c621124400abdbcb4cc96]
cluster entrypoints--><g id="cluster_entrypoints"><path d="M74.5,599 L166.5,599 A3.75,3.75 0 0 1 169,601.5 L176,621.2969 L221.5,621.2969 A2.5,2.5 0 0 1 224,623.7969 L224,872 A2.5,2.5 0 0 1 221.5,874.5 L74.5,874.5 A2.5,2.5 0 0 1 72,872 L72,601.5 A2.5,2.5 0 0 1 74.5,599 " style="stroke:#000000;stroke-width:1.5;fill:none;"/><line style="stroke:#000000;stroke-width:1.5;fill:none;" x1="72" x2="176" y1="621.2969" y2="621.2969"/><text fill="#000000" font-family="sans-serif" font-size="14" font-weight="bold" lengthAdjust="spacing" textLength="91" x="76" y="613.9951">entrypoints</text></g><!--MD5=[01435ace8273dc3cae88e7f376e4d373]
cluster core--><g id="cluster_core"><rect height="302.5" rx="2.5" ry="2.5" style="stroke:#181818;stroke-width:1.0;fill:none;" width="424" x="490" y="736"/><rect height="10" style="stroke:#181818;stroke-width:1.0;fill:none;" width="15" x="894" y="741"/><rect height="2" style="stroke:#181818;stroke-width:1.0;fill:none;" width="4" x="892" y="743"/><rect height="2" style="stroke:#181818;stroke-width:1.0;fill:none;" width="4" x="892" y="747"/><text fill="#000000" font-family="sans-serif" font-size="14" font-weight="bold" lengthAdjust="spacing" textLength="36" x="684" y="761.9951">core</text></g><!--MD5=[04d1a8cdc20c2bb64a3f09a28f803fad]
cluster core.dataprovider--><g id="cluster_core.dataprovider"><path d="M516.5,779 L659.5,779 A3.75,3.75 0 0 1 662,781.5 L669,801.2969 L669.5,801.2969 A2.5,2.5 0 0 1 672,803.7969 L672,880.5 A2.5,2.5 0 0 1 669.5,883 L516.5,883 A2.5,2.5 0 0 1 514,880.5 L514,781.5 A2.5,2.5 0 0 1 516.5,779 " style="stroke:#000000;stroke-width:1.5;fill:none;"/><line style="stroke:#000000;stroke-width:1.5;fill:none;" x1="514" x2="669" y1="801.2969" y2="801.2969"/><text fill="#000000" font-family="sans-serif" font-size="14" font-weight="bold" lengthAdjust="spacing" textLength="142" x="518" y="793.9951">core.dataprovider</text></g><!--MD5=[9d2b378c7af5ab0a675f195a4be89ea0]
cluster core.usecases--><g id="cluster_core.usecases"><path d="M698.5,779 L815.5,779 A3.75,3.75 0 0 1 818,781.5 L825,801.2969 L887.5,801.2969 A2.5,2.5 0 0 1 890,803.7969 L890,1012 A2.5,2.5 0 0 1 887.5,1014.5 L698.5,1014.5 A2.5,2.5 0 0 1 696,1012 L696,781.5 A2.5,2.5 0 0 1 698.5,779 " style="stroke:#000000;stroke-width:1.5;fill:none;"/><line style="stroke:#000000;stroke-width:1.5;fill:none;" x1="696" x2="825" y1="801.2969" y2="801.2969"/><text fill="#000000" font-family="sans-serif" font-size="14" font-weight="bold" lengthAdjust="spacing" textLength="116" x="700" y="793.9951">core.usecases</text></g><!--MD5=[b9957dbb0fd9b3ab920846f998d846ca]
cluster SisREP - React--><g id="cluster_SisREP - React"><polygon points="756,16,766,6,1177,6,1177,298,1167,308,756,308,756,16" style="stroke:#181818;stroke-width:1.0;fill:none;"/><line style="stroke:#181818;stroke-width:1.0;fill:none;" x1="1167" x2="1177" y1="16" y2="6"/><line style="stroke:#181818;stroke-width:1.0;fill:none;" x1="756" x2="1167" y1="16" y2="16"/><line style="stroke:#181818;stroke-width:1.0;fill:none;" x1="1167" x2="1167" y1="16" y2="308"/><text fill="#000000" font-family="sans-serif" font-size="14" font-weight="bold" lengthAdjust="spacing" textLength="112" x="906.5" y="31.9951">SisREP - React</text></g><!--MD5=[dcb5f8d009e232ef79ee083b1d6344c6]
cluster telas--><g id="cluster_telas"><rect height="113" rx="2.5" ry="2.5" style="stroke:#181818;stroke-width:1.0;fill:none;" width="207" x="938" y="62"/><rect height="10" style="stroke:#181818;stroke-width:1.0;fill:none;" width="15" x="1125" y="67"/><rect height="2" style="stroke:#181818;stroke-width:1.0;fill:none;" width="4" x="1123" y="69"/><rect height="2" style="stroke:#181818;stroke-width:1.0;fill:none;" width="4" x="1123" y="73"/><text fill="#000000" font-family="sans-serif" font-size="14" font-weight="bold" lengthAdjust="spacing" textLength="38" x="1022.5" y="87.9951">telas</text></g><!--MD5=[89112a84c8daddb34abf4f068893e892]
entity PostgreSQL--><g id="elem_PostgreSQL"><path d="M294.5,387.5 C294.5,377.5 345,377.5 345,377.5 C345,377.5 395.5,377.5 395.5,387.5 L395.5,412.7969 C395.5,422.7969 345,422.7969 345,422.7969 C345,422.7969 294.5,422.7969 294.5,412.7969 L294.5,387.5 " fill="#F1F1F1" style="stroke:#181818;stroke-width:0.5;"/><path d="M294.5,387.5 C294.5,397.5 345,397.5 345,397.5 C345,397.5 395.5,397.5 395.5,387.5 " fill="none" style="stroke:#181818;stroke-width:0.5;"/><text fill="#000000" font-family="sans-serif" font-size="14" lengthAdjust="spacing" textLength="81" x="304.5" y="414.4951">PostgreSQL</text></g><!--MD5=[0edfdc54cba641c8c021fd34980233ae]
entity repoImpl--><g id="elem_repoImpl"><rect fill="#F1F1F1" height="52.5938" rx="2.5" ry="2.5" style="stroke:#181818;stroke-width:0.5;" width="161" x="264.5" y="634"/><text fill="#000000" font-family="sans-serif" font-size="14" lengthAdjust="spacing" textLength="141" x="274.5" y="656.9951">@javax.inject.Named</text><text fill="#000000" font-family="sans-serif" font-size="14" lengthAdjust="spacing" textLength="102" x="274.5" y="673.292">RepositoryImpl</text></g><!--MD5=[9b5d37bdb7be2cac1b39a82444f5f5a6]
entity ctrl--><g id="elem_ctrl"><rect fill="#F1F1F1" height="52.5938" rx="2.5" ry="2.5" style="stroke:#181818;stroke-width:0.5;" width="98" x="105" y="634"/><text fill="#000000" font-family="sans-serif" font-size="14" lengthAdjust="spacing" textLength="78" x="115" y="656.9951">«interface»</text><text fill="#000000" font-family="sans-serif" font-size="14" lengthAdjust="spacing" textLength="67" x="115" y="673.292">Controller</text></g><!--MD5=[ac40dd4c03671801018102ca7be9c337]
entity rest--><g id="elem_rest"><rect fill="#F1F1F1" height="36.2969" rx="2.5" ry="2.5" style="stroke:#181818;stroke-width:0.5;" width="119" x="88.5" y="822.5"/><text fill="#000000" font-family="sans-serif" font-size="14" lengthAdjust="spacing" textLength="99" x="98.5" y="845.4951">RestController</text></g><!--MD5=[ae38f3df50bbf8acf027574e6a8bac37]
entity repo--><g id="elem_repo"><rect fill="#F1F1F1" height="52.5938" rx="2.5" ry="2.5" style="stroke:#181818;stroke-width:0.5;" width="98" x="544" y="814"/><text fill="#000000" font-family="sans-serif" font-size="14" lengthAdjust="spacing" textLength="78" x="554" y="836.9951">«interface»</text><text fill="#000000" font-family="sans-serif" font-size="14" lengthAdjust="spacing" textLength="74" x="554" y="853.292">Repository</text></g><!--MD5=[dba0e8c0ce2eb500cc6b596c0c597aa1]
entity ucImpl--><g id="elem_ucImpl"><rect fill="#F1F1F1" height="52.5938" rx="2.5" ry="2.5" style="stroke:#181818;stroke-width:0.5;" width="161" x="712.5" y="945.5"/><text fill="#000000" font-family="sans-serif" font-size="14" lengthAdjust="spacing" textLength="141" x="722.5" y="968.4951">@javax.inject.Named</text><text fill="#000000" font-family="sans-serif" font-size="14" lengthAdjust="spacing" textLength="90" x="722.5" y="984.792">UseCaseImpl</text></g><!--MD5=[3a45786a43c258a5cec52944ed422cce]
entity uc--><g id="elem_uc"><rect fill="#F1F1F1" height="52.5938" rx="2.5" ry="2.5" style="stroke:#181818;stroke-width:0.5;" width="98" x="728" y="814"/><text fill="#000000" font-family="sans-serif" font-size="14" lengthAdjust="spacing" textLength="78" x="738" y="836.9951">«interface»</text><text fill="#000000" font-family="sans-serif" font-size="14" lengthAdjust="spacing" textLength="62" x="738" y="853.292">UseCase</text></g><!--MD5=[b104a80322f335489abe337e85112ed3]
entity Rotas--><g id="elem_Rotas"><rect fill="#F1F1F1" height="46.2969" rx="2.5" ry="2.5" style="stroke:#181818;stroke-width:0.5;" width="80" x="772" y="105"/><rect fill="#F1F1F1" height="10" style="stroke:#181818;stroke-width:0.5;" width="15" x="832" y="110"/><rect fill="#F1F1F1" height="2" style="stroke:#181818;stroke-width:0.5;" width="4" x="830" y="112"/><rect fill="#F1F1F1" height="2" style="stroke:#181818;stroke-width:0.5;" width="4" x="830" y="116"/><text fill="#000000" font-family="sans-serif" font-size="14" lengthAdjust="spacing" textLength="40" x="787" y="137.9951">Rotas</text></g><!--MD5=[254f7dd6e9de839ef3d633b5848b7ccd]
entity Servicos--><g id="elem_Servicos"><rect fill="#F1F1F1" height="46.2969" rx="2.5" ry="2.5" style="stroke:#181818;stroke-width:0.5;" width="98" x="897" y="246"/><rect fill="#F1F1F1" height="10" style="stroke:#181818;stroke-width:0.5;" width="15" x="975" y="251"/><rect fill="#F1F1F1" height="2" style="stroke:#181818;stroke-width:0.5;" width="4" x="973" y="253"/><rect fill="#F1F1F1" height="2" style="stroke:#181818;stroke-width:0.5;" width="4" x="973" y="257"/><text fill="#000000" font-family="sans-serif" font-size="14" lengthAdjust="spacing" textLength="58" x="912" y="278.9951">Servicos</text></g><!--MD5=[77f7683e66a2c1a57607f3124877eaec]
entity Componentes--><g id="elem_Componentes"><rect fill="#F1F1F1" height="46.2969" rx="2.5" ry="2.5" style="stroke:#181818;stroke-width:0.5;" width="139" x="981.5" y="105"/><rect fill="#F1F1F1" height="10" style="stroke:#181818;stroke-width:0.5;" width="15" x="1100.5" y="110"/><rect fill="#F1F1F1" height="2" style="stroke:#181818;stroke-width:0.5;" width="4" x="1098.5" y="112"/><rect fill="#F1F1F1" height="2" style="stroke:#181818;stroke-width:0.5;" width="4" x="1098.5" y="116"/><text fill="#000000" font-family="sans-serif" font-size="14" lengthAdjust="spacing" textLength="99" x="996.5" y="137.9951">Componentes</text></g><!--MD5=[96f7e1299d4a43069e6ed32352fcac20]
entity HTTP--><g id="elem_HTTP"><ellipse cx="946" cy="400" fill="#F1F1F1" rx="8" ry="8" style="stroke:#181818;stroke-width:0.5;"/><text fill="#000000" font-family="sans-serif" font-size="14" lengthAdjust="spacing" textLength="37" x="927.5" y="429.9951">HTTP</text></g><!--MD5=[336b719eb7deedad675a8dd72e9cf657]
reverse link ctrl to rest--><g id="link_ctrl_rest"><path d="M152.46,707.22 C151.2,744.7 149.48,795.72 148.59,822.1 " fill="none" id="ctrl-backto-rest" style="stroke:#181818;stroke-width:1.0;stroke-dasharray:7.0,7.0;"/><polygon fill="none" points="145.47,706.76,153.14,687,159.46,707.23,145.47,706.76" style="stroke:#181818;stroke-width:1.0;"/></g><!--MD5=[b39cb304b20695df5702ff2a08258dfc]
reverse link uc to ucImpl--><g id="link_uc_ucImpl"><path d="M782.62,886.97 C785.04,906.59 787.79,928.81 789.85,945.47 " fill="none" id="uc-backto-ucImpl" style="stroke:#181818;stroke-width:1.0;stroke-dasharray:7.0,7.0;"/><polygon fill="none" points="775.67,887.79,780.16,867.09,789.56,886.08,775.67,887.79" style="stroke:#181818;stroke-width:1.0;"/></g><!--MD5=[a97165fda832f7a1fb173177d7ed7341]
reverse link repo to ucImpl--><g id="link_repo_ucImpl"><path d="M637.12,870.07 C671.93,892.6 720.04,923.76 753.57,945.47 " fill="none" id="repo-backto-ucImpl" style="stroke:#181818;stroke-width:1.0;stroke-dasharray:7.0,7.0;"/><polygon fill="#181818" points="632.51,867.09,637.8978,875.3345,636.7094,869.8039,642.24,868.6155,632.51,867.09" style="stroke:#181818;stroke-width:1.0;"/></g><!--MD5=[c56f49d0d3ce265b2f0f67d6e9ff0131]
link ctrl to uc--><g id="link_ctrl_uc"><path d="M193.1,687.07 C209.4,696.38 228.94,705.87 248,711 C336.05,734.71 573.91,692.73 658,728 C698.64,745.05 733.86,782.59 755.22,809.4 " fill="none" id="ctrl-to-uc" style="stroke:#181818;stroke-width:1.0;stroke-dasharray:7.0,7.0;"/><polygon fill="#181818" points="758.53,813.61,756.1164,804.0615,755.4415,809.6779,749.8251,809.003,758.53,813.61" style="stroke:#181818;stroke-width:1.0;"/></g><!--MD5=[e140339cd16e6a1ed7131257ee423276]
reverse link PostgreSQL to repoImpl--><g id="link_PostgreSQL_repoImpl"><path d="M345,427.82 C345,477.77 345,584.4 345,633.62 " fill="none" id="PostgreSQL-backto-repoImpl" style="stroke:#181818;stroke-width:1.0;stroke-dasharray:7.0,7.0;"/><polygon fill="#181818" points="345,422.59,341,431.59,345,427.59,349,431.59,345,422.59" style="stroke:#181818;stroke-width:1.0;"/><text fill="#000000" font-family="sans-serif" font-size="13" lengthAdjust="spacing" textLength="26" x="346" y="472.0669">jdbc</text></g><!--MD5=[e93e47371ce2e78dfb1f1fda1aca4494]
link repoImpl to repo--><g id="link_repoImpl_repo"><path d="M380.53,687 C422.49,717.12 492.66,767.48 540.79,802.03 " fill="none" id="repoImpl-to-repo" style="stroke:#181818;stroke-width:1.0;stroke-dasharray:7.0,7.0;"/><polygon fill="none" points="544.96,796.41,557.13,813.76,536.8,807.78,544.96,796.41" style="stroke:#181818;stroke-width:1.0;"/></g><!--MD5=[8f65624f84167943ac61a9de72cacae4]
reverse link HTTP to api--><g id="link_HTTP_api"><path d="M946,414.12 C946,427.0575 946,448.475 946,473.4184 C946,479.6543 946,486.1105 946,492.7097 C946,494.3595 946,496.0183 946,497.6847 C946,498.1013 946,498.5184 946,498.936 " fill="none" id="HTTP-backto-api" style="stroke:#181818;stroke-width:1.0;"/><polygon fill="#181818" points="946,409.02,942,418.02,946,414.02,950,418.02,946,409.02" style="stroke:#181818;stroke-width:1.0;"/><text fill="#000000" font-family="sans-serif" font-size="13" lengthAdjust="spacing" textLength="48" x="947" y="472.0669">fornece</text></g><!--MD5=[d7e9d20e004907db08e553dd507b4c1c]
reverse link telas to Rotas--><g id="link_telas_Rotas"><path d="M937.8965,135.8278 C937.8616,135.8577 937.8267,135.8876 937.7917,135.9176 C937.7216,135.9775 937.6512,136.0376 937.5805,136.0978 C937.439,136.2182 937.2962,136.339 937.152,136.4603 C936.5751,136.9452 935.9767,137.4366 935.3588,137.93 C930.415,141.8775 924.22,145.96 917.82,148 C896.53,154.79 872.06,150.88 852.02,144.78 " fill="none" id="telas-backto-Rotas" style="stroke:#181818;stroke-width:1.0;stroke-dasharray:7.0,7.0;"/><polygon fill="#181818" points="937.8965,135.8278,928.462,138.6546,934.1025,139.0844,933.6727,144.7249,937.8965,135.8278" style="stroke:#181818;stroke-width:1.0;"/><text fill="#000000" font-family="sans-serif" font-size="13" lengthAdjust="spacing" textLength="36" x="880.82" y="144.0669">usam</text></g><!--MD5=[695d299b2f4d583dd2961b06d2c89205]
link telas to Rotas--><g id="link_telas_Rotas"><path d="M937.9909,128 C937.9155,128 937.8396,128 937.7633,128 C937.6106,128 937.4561,128 937.2998,128 C936.9871,128 936.6671,128 936.34,128 C935.6859,128 935.0033,128 934.2937,128 C928.6175,128 921.2175,128 912.865,128 C896.16,128 875.645,128 857.49,128 " fill="none" id="telas-to-Rotas" style="stroke:#181818;stroke-width:1.0;stroke-dasharray:7.0,7.0;"/><polygon fill="#181818" points="852.2,128,861.2,132,857.2,128,861.2,124,852.2,128" style="stroke:#181818;stroke-width:1.0;"/><text fill="#000000" font-family="sans-serif" font-size="13" lengthAdjust="spacing" textLength="57" x="870.32" y="121.0669">proveem</text></g><!--MD5=[bc444bb391b2adcbf1654935f1ae0955]
link telas to Servicos--><g id="link_telas_Servicos"><path d="M946,175.0068 C946,175.1871 946,175.3677 946,175.5485 C946,176.9947 946,178.4559 946,179.9291 C946,182.8755 946,185.8699 946,188.8891 C946,194.9273 946,201.0644 946,207.1131 C946,219.2106 946,230.955 946,240.85 " fill="none" id="telas-to-Servicos" style="stroke:#181818;stroke-width:1.0;stroke-dasharray:7.0,7.0;"/><polygon fill="#181818" points="946,245.99,950,236.99,946,240.99,942,236.99,946,245.99" style="stroke:#181818;stroke-width:1.0;"/><text fill="#000000" font-family="sans-serif" font-size="13" lengthAdjust="spacing" textLength="36" x="947" y="212.0669">usam</text></g><!--MD5=[c3a998050dbb562fc044e81a76092814]
link Servicos to HTTP--><g id="link_Servicos_HTTP"><path d="M946,292.18 C946,319.14 946,363.77 946,385.82 " fill="none" id="Servicos-to-HTTP" style="stroke:#181818;stroke-width:1.0;stroke-dasharray:7.0,7.0;"/><polygon fill="#181818" points="946,390.92,950,381.92,946,385.92,942,381.92,946,390.92" style="stroke:#181818;stroke-width:1.0;"/><text fill="#000000" font-family="sans-serif" font-size="13" lengthAdjust="spacing" textLength="59" x="947" y="337.0669">consome</text></g><!--MD5=[e73fe36dc896cf30c49b86a6384be329]
@startuml

    database PostgreSQL {

    }

    node "SisREP - API" as api {
        component application {
            package dataprovider {
                rectangle "@javax.inject.Named\nRepositoryImpl"  as repoImpl
            }

            package entrypoints {
                rectangle "<<interface>>\nController"  as ctrl
                rectangle "RestController"  as rest

                rest .up.|> ctrl
            }
        }
        component core {
            package core.dataprovider {
                rectangle "<<interface>>\nRepository"  as repo
            }

            package core.usecases {
                rectangle "@javax.inject.Named\nUseCaseImpl"  as ucImpl
                rectangle "<<interface>>\nUseCase"  as uc

                ucImpl .up.|> uc
                ucImpl .up.> repo
                ctrl ..> uc
                repoImpl .up.> PostgreSQL : "jdbc"
            }
        }

        repoImpl ..|> repo
    }
    
    HTTP <- - api : fornece

    node "SisREP - React" {        
        component telas {
            [Componentes]
        }
        [Rotas] .left.> telas : "usam"
        telas .right.> [Rotas] : "proveem"
        telas .down.> [Servicos] : "usam"
    }

    [Servicos] .down.> HTTP : "consome"
@enduml

PlantUML version 1.2022.3(Tue Mar 29 13:10:57 BRT 2022)
(GPL source distribution)
Java Runtime: OpenJDK Runtime Environment
JVM: Eclipse OpenJ9 VM
Default Encoding: UTF-8
Language: pt
Country: BR
--></g></svg>