<?xml version="1.0" encoding="UTF-8" standalone="no"?><svg xmlns="http://www.w3.org/2000/svg" xmlns:xlink="http://www.w3.org/1999/xlink" contentStyleType="text/css" height="506px" preserveAspectRatio="none" style="width:328px;height:506px;background:#FFFFFF;" version="1.1" viewBox="0 0 328 506" width="328px" zoomAndPan="magnify"><defs/><g><ellipse cx="85.5" cy="20" fill="#222222" rx="10" ry="10" style="stroke:#222222;stroke-width:1.0;"/><rect fill="#F1F1F1" height="47.9375" rx="12.5" ry="12.5" style="stroke:#181818;stroke-width:0.5;" width="113" x="29" y="142.4023"/><text fill="#000000" font-family="sans-serif" font-size="12" lengthAdjust="spacing" textLength="93" x="39" y="163.541">Informar e-mail</text><text fill="#000000" font-family="sans-serif" font-size="12" lengthAdjust="spacing" textLength="76" x="39" y="177.5098">institucional</text><rect fill="#F1F1F1" height="33.9688" rx="12.5" ry="12.5" style="stroke:#181818;stroke-width:0.5;" width="104" x="33.5" y="210.3398"/><text fill="#000000" font-family="sans-serif" font-size="12" lengthAdjust="spacing" textLength="84" x="43.5" y="231.4785">Digitar senha</text><rect fill="#F1F1F1" height="33.9688" rx="12.5" ry="12.5" style="stroke:#181818;stroke-width:0.5;" width="108" x="31.5" y="264.3086"/><text fill="#000000" font-family="sans-serif" font-size="12" lengthAdjust="spacing" textLength="88" x="41.5" y="285.4473">Repetir senha</text><polygon fill="#F1F1F1" points="85.5,98.4023,97.5,110.4023,85.5,122.4023,73.5,110.4023,85.5,98.4023" style="stroke:#181818;stroke-width:0.5;"/><polygon fill="#F1F1F1" points="32,318.2773,139,318.2773,151,330.2773,139,342.2773,32,342.2773,20,330.2773,32,318.2773" style="stroke:#181818;stroke-width:0.5;"/><text fill="#000000" font-family="sans-serif" font-size="11" lengthAdjust="spacing" textLength="107" x="32" y="334.0854">Campos invalidos?</text><text fill="#000000" font-family="sans-serif" font-size="11" lengthAdjust="spacing" textLength="22" x="151" y="327.6831">Sim</text><polygon fill="#F1F1F1" points="39,50,132,50,144,62,132,74,39,74,27,62,39,50" style="stroke:#181818;stroke-width:0.5;"/><text fill="#000000" font-family="sans-serif" font-size="11" lengthAdjust="spacing" textLength="22" x="89.5" y="84.2104">Não</text><text fill="#000000" font-family="sans-serif" font-size="11" lengthAdjust="spacing" textLength="93" x="39" y="65.8081">Já possui conta?</text><polygon fill="#F1F1F1" points="85.5,366.1763,97.5,378.1763,85.5,390.1763,73.5,378.1763,85.5,366.1763" style="stroke:#181818;stroke-width:0.5;"/><text fill="#000000" font-family="sans-serif" font-size="11" lengthAdjust="spacing" textLength="22" x="91.5" y="363.582">Não</text><path d="M156.5,400.1763 L156.5,423.8755 L136.5,427.8755 L156.5,431.8755 L156.5,455.5747 A0,0 0 0 0 156.5,455.5747 L316.5,455.5747 A0,0 0 0 0 316.5,455.5747 L316.5,410.1763 L306.5,400.1763 L156.5,400.1763 A0,0 0 0 0 156.5,400.1763 " fill="#FEFFDD" style="stroke:#181818;stroke-width:0.5;"/><path d="M306.5,400.1763 L306.5,410.1763 L316.5,410.1763 L306.5,400.1763 " fill="#FEFFDD" style="stroke:#181818;stroke-width:0.5;"/><text fill="#000000" font-family="sans-serif" font-size="13" lengthAdjust="spacing" textLength="133" x="162.5" y="417.2432">Consulte o diagrama</text><text fill="#000000" font-family="sans-serif" font-size="13" lengthAdjust="spacing" textLength="139" x="162.5" y="432.376">de atividades de login</text><text fill="#000000" font-family="sans-serif" font-size="13" lengthAdjust="spacing" textLength="127" x="162.5" y="447.5088">para mais detalhes.</text><rect fill="#F1F1F1" height="33.9688" rx="12.5" ry="12.5" style="stroke:#181818;stroke-width:0.5;" width="102" x="34.5" y="410.8911"/><text fill="#000000" font-family="sans-serif" font-size="12" lengthAdjust="spacing" textLength="82" x="44.5" y="432.0298">Realizar login</text><ellipse cx="85.5" cy="485.5747" rx="10" ry="10" style="stroke:#222222;stroke-width:1.5;fill:none;"/><line style="stroke:#222222;stroke-width:2.5;fill:none;" x1="79.3128" x2="91.6872" y1="479.3875" y2="491.7619"/><line style="stroke:#222222;stroke-width:2.5;fill:none;" x1="91.6872" x2="79.3128" y1="479.3875" y2="491.7619"/><line style="stroke:#181818;stroke-width:1.0;fill:none;" x1="85.5" x2="85.5" y1="190.3398" y2="210.3398"/><polygon fill="#181818" points="81.5,200.3398,85.5,210.3398,89.5,200.3398,85.5,204.3398" style="stroke:#181818;stroke-width:1.0;"/><line style="stroke:#181818;stroke-width:1.0;" x1="85.5" x2="85.5" y1="244.3086" y2="264.3086"/><polygon fill="#181818" points="81.5,254.3086,85.5,264.3086,89.5,254.3086,85.5,258.3086" style="stroke:#181818;stroke-width:1.0;"/><line style="stroke:#181818;stroke-width:1.0;" x1="85.5" x2="85.5" y1="122.4023" y2="142.4023"/><polygon fill="#181818" points="81.5,132.4023,85.5,142.4023,89.5,132.4023,85.5,136.4023" style="stroke:#181818;stroke-width:1.0;"/><line style="stroke:#181818;stroke-width:1.0;" x1="151" x2="163" y1="330.2773" y2="330.2773"/><polygon fill="#181818" points="159,230.3398,163,220.3398,167,230.3398,163,226.3398" style="stroke:#181818;stroke-width:1.0;"/><line style="stroke:#181818;stroke-width:1.0;" x1="163" x2="163" y1="110.4023" y2="330.2773"/><line style="stroke:#181818;stroke-width:1.0;" x1="163" x2="97.5" y1="110.4023" y2="110.4023"/><polygon fill="#181818" points="107.5,106.4023,97.5,110.4023,107.5,114.4023,103.5,110.4023" style="stroke:#181818;stroke-width:1.0;"/><line style="stroke:#181818;stroke-width:1.0;" x1="85.5" x2="85.5" y1="298.2773" y2="318.2773"/><polygon fill="#181818" points="81.5,308.2773,85.5,318.2773,89.5,308.2773,85.5,312.2773" style="stroke:#181818;stroke-width:1.0;"/><line style="stroke:#181818;stroke-width:1.0;" x1="85.5" x2="85.5" y1="74" y2="98.4023"/><polygon fill="#181818" points="81.5,88.4023,85.5,98.4023,89.5,88.4023,85.5,92.4023" style="stroke:#181818;stroke-width:1.0;"/><line style="stroke:#181818;stroke-width:1.0;" x1="144" x2="185" y1="62" y2="62"/><polygon fill="#181818" points="181,216.7422,185,226.7422,189,216.7422,185,220.7422" style="stroke:#181818;stroke-width:1.0;"/><line style="stroke:#181818;stroke-width:1.0;" x1="185" x2="185" y1="62" y2="378.1763"/><line style="stroke:#181818;stroke-width:1.0;" x1="185" x2="97.5" y1="378.1763" y2="378.1763"/><polygon fill="#181818" points="107.5,374.1763,97.5,378.1763,107.5,382.1763,103.5,378.1763" style="stroke:#181818;stroke-width:1.0;"/><line style="stroke:#181818;stroke-width:1.0;" x1="85.5" x2="85.5" y1="342.2773" y2="366.1763"/><polygon fill="#181818" points="81.5,356.1763,85.5,366.1763,89.5,356.1763,85.5,360.1763" style="stroke:#181818;stroke-width:1.0;"/><line style="stroke:#181818;stroke-width:1.0;" x1="85.5" x2="85.5" y1="30" y2="50"/><polygon fill="#181818" points="81.5,40,85.5,50,89.5,40,85.5,44" style="stroke:#181818;stroke-width:1.0;"/><line style="stroke:#181818;stroke-width:1.0;" x1="85.5" x2="85.5" y1="390.1763" y2="410.8911"/><polygon fill="#181818" points="81.5,400.8911,85.5,410.8911,89.5,400.8911,85.5,404.8911" style="stroke:#181818;stroke-width:1.0;"/><line style="stroke:#181818;stroke-width:1.0;" x1="85.5" x2="85.5" y1="444.8599" y2="475.5747"/><polygon fill="#181818" points="81.5,465.5747,85.5,475.5747,89.5,465.5747,85.5,469.5747" style="stroke:#181818;stroke-width:1.0;"/><!--MD5=[427b77c1f555feff93f4e1f0b9486745]
@startuml cadastro na plataforma
start
if(Já possui conta?) then (Não)
    repeat
        :Informar e-mail\ninstitucional;
        :Digitar senha;
        :Repetir senha;
    repeat while (Campos invalidos?) is (Sim)
    ->Não;
endif
:Realizar login;
note right: Consulte o diagrama\nde atividades de login\npara mais detalhes.
end
@enduml

PlantUML version 1.2022.3(Tue Mar 29 13:10:57 BRT 2022)
(GPL source distribution)
Java Runtime: OpenJDK Runtime Environment
JVM: Eclipse OpenJ9 VM
Default Encoding: UTF-8
Language: pt
Country: BR
--></g></svg>