<?xml version="1.0" encoding="UTF-8" standalone="no"?><svg xmlns="http://www.w3.org/2000/svg" xmlns:xlink="http://www.w3.org/1999/xlink" contentStyleType="text/css" height="420px" preserveAspectRatio="none" style="width:538px;height:420px;background:#FFFFFF;" version="1.1" viewBox="0 0 538 420" width="538px" zoomAndPan="magnify"><defs/><g><ellipse cx="286" cy="20" fill="#222222" rx="10" ry="10" style="stroke:#222222;stroke-width:1.0;"/><line style="stroke:#181818;stroke-width:1.5;" x1="80" x2="472.5" y1="50" y2="50"/><path d="M151,73.8359 L151,89.9688 L131,93.9688 L151,97.9688 L151,114.1016 A0,0 0 0 0 151,114.1016 L285,114.1016 A0,0 0 0 0 285,114.1016 L285,83.8359 L275,73.8359 L151,73.8359 A0,0 0 0 0 151,73.8359 " fill="#FEFFDD" style="stroke:#181818;stroke-width:0.5;"/><path d="M275,73.8359 L275,83.8359 L285,83.8359 L275,73.8359 " fill="#FEFFDD" style="stroke:#181818;stroke-width:0.5;"/><text fill="#000000" font-family="sans-serif" font-size="13" lengthAdjust="spacing" textLength="96" x="157" y="90.9028">O usuário deve</text><text fill="#000000" font-family="sans-serif" font-size="13" lengthAdjust="spacing" textLength="113" x="157" y="106.0356">estar cadastrado.</text><rect fill="#F1F1F1" height="47.9375" rx="12.5" ry="12.5" style="stroke:#181818;stroke-width:0.5;" width="102" x="29" y="70"/><text fill="#000000" font-family="sans-serif" font-size="12" lengthAdjust="spacing" textLength="82" x="39" y="91.1387">Realizar login</text><text fill="#000000" font-family="sans-serif" font-size="12" lengthAdjust="spacing" textLength="80" x="39" y="105.1074">pelo sistema</text><rect fill="#F1F1F1" height="47.9375" rx="12.5" ry="12.5" style="stroke:#181818;stroke-width:0.5;" width="100" x="30" y="188.9219"/><text fill="#000000" font-family="sans-serif" font-size="12" lengthAdjust="spacing" textLength="80" x="40" y="210.0605">Inserir e-mail</text><text fill="#000000" font-family="sans-serif" font-size="12" lengthAdjust="spacing" textLength="76" x="40" y="224.0293">institucional</text><rect fill="#F1F1F1" height="33.9688" rx="12.5" ry="12.5" style="stroke:#181818;stroke-width:0.5;" width="102" x="29" y="271.3438"/><text fill="#000000" font-family="sans-serif" font-size="12" lengthAdjust="spacing" textLength="82" x="39" y="292.4824">Inserir senha</text><polygon fill="#F1F1F1" points="80,137.9375,92,149.9375,80,161.9375,68,149.9375,80,137.9375" style="stroke:#181818;stroke-width:0.5;"/><polygon fill="#F1F1F1" points="32,325.3125,128,325.3125,140,337.3125,128,349.3125,32,349.3125,20,337.3125,32,325.3125" style="stroke:#181818;stroke-width:0.5;"/><text fill="#000000" font-family="sans-serif" font-size="11" lengthAdjust="spacing" textLength="96" x="32" y="341.1206">Dados inválidos?</text><text fill="#000000" font-family="sans-serif" font-size="11" lengthAdjust="spacing" textLength="22" x="140" y="334.7183">Sim</text><rect fill="#F1F1F1" height="47.9375" rx="12.5" ry="12.5" style="stroke:#181818;stroke-width:0.5;" width="102" x="306" y="181.9375"/><text fill="#000000" font-family="sans-serif" font-size="12" lengthAdjust="spacing" textLength="82" x="316" y="203.0762">Realizar login</text><text fill="#000000" font-family="sans-serif" font-size="12" lengthAdjust="spacing" textLength="74" x="316" y="217.0449">pelo google</text><rect fill="#F1F1F1" height="47.9375" rx="12.5" ry="12.5" style="stroke:#181818;stroke-width:0.5;" width="109" x="418" y="181.9375"/><text fill="#000000" font-family="sans-serif" font-size="12" lengthAdjust="spacing" textLength="82" x="428" y="203.0762">Realizar login</text><text fill="#000000" font-family="sans-serif" font-size="12" lengthAdjust="spacing" textLength="89" x="428" y="217.0449">pelo facebook</text><line style="stroke:#181818;stroke-width:1.5;" x1="80" x2="472.5" y1="369.3125" y2="369.3125"/><ellipse cx="286" cy="399.3125" rx="10" ry="10" style="stroke:#222222;stroke-width:1.5;fill:none;"/><line style="stroke:#222222;stroke-width:2.5;fill:none;" x1="279.8128" x2="292.1872" y1="393.1253" y2="405.4997"/><line style="stroke:#222222;stroke-width:2.5;fill:none;" x1="292.1872" x2="279.8128" y1="393.1253" y2="405.4997"/><line style="stroke:#181818;stroke-width:1.0;fill:none;" x1="80" x2="80" y1="236.8594" y2="271.3438"/><polygon fill="#181818" points="76,261.3438,80,271.3438,84,261.3438,80,265.3438" style="stroke:#181818;stroke-width:1.0;"/><line style="stroke:#181818;stroke-width:1.0;" x1="80" x2="80" y1="161.9375" y2="188.9219"/><polygon fill="#181818" points="76,178.9219,80,188.9219,84,178.9219,80,182.9219" style="stroke:#181818;stroke-width:1.0;"/><line style="stroke:#181818;stroke-width:1.0;" x1="140" x2="152" y1="337.3125" y2="337.3125"/><polygon fill="#181818" points="148,256.8594,152,246.8594,156,256.8594,152,252.8594" style="stroke:#181818;stroke-width:1.0;"/><line style="stroke:#181818;stroke-width:1.0;" x1="152" x2="152" y1="149.9375" y2="337.3125"/><line style="stroke:#181818;stroke-width:1.0;" x1="152" x2="92" y1="149.9375" y2="149.9375"/><polygon fill="#181818" points="102,145.9375,92,149.9375,102,153.9375,98,149.9375" style="stroke:#181818;stroke-width:1.0;"/><line style="stroke:#181818;stroke-width:1.0;" x1="80" x2="80" y1="305.3125" y2="325.3125"/><polygon fill="#181818" points="76,315.3125,80,325.3125,84,315.3125,80,319.3125" style="stroke:#181818;stroke-width:1.0;"/><line style="stroke:#181818;stroke-width:1.0;" x1="80" x2="80" y1="117.9375" y2="137.9375"/><polygon fill="#181818" points="76,127.9375,80,137.9375,84,127.9375,80,131.9375" style="stroke:#181818;stroke-width:1.0;"/><line style="stroke:#181818;stroke-width:1.0;" x1="80" x2="80" y1="51.5" y2="70"/><polygon fill="#181818" points="76,60,80,70,84,60,80,64" style="stroke:#181818;stroke-width:1.0;"/><line style="stroke:#181818;stroke-width:1.0;" x1="357" x2="357" y1="51.5" y2="181.9375"/><polygon fill="#181818" points="353,171.9375,357,181.9375,361,171.9375,357,175.9375" style="stroke:#181818;stroke-width:1.0;"/><line style="stroke:#181818;stroke-width:1.0;" x1="472.5" x2="472.5" y1="51.5" y2="181.9375"/><polygon fill="#181818" points="468.5,171.9375,472.5,181.9375,476.5,171.9375,472.5,175.9375" style="stroke:#181818;stroke-width:1.0;"/><line style="stroke:#181818;stroke-width:1.0;" x1="80" x2="80" y1="349.3125" y2="369.3125"/><polygon fill="#181818" points="76,359.3125,80,369.3125,84,359.3125,80,363.3125" style="stroke:#181818;stroke-width:1.0;"/><text fill="#000000" font-family="sans-serif" font-size="11" lengthAdjust="spacing" textLength="22" x="84" y="363.1206">Não</text><line style="stroke:#181818;stroke-width:1.0;" x1="357" x2="357" y1="229.875" y2="369.3125"/><polygon fill="#181818" points="353,359.3125,357,369.3125,361,359.3125,357,363.3125" style="stroke:#181818;stroke-width:1.0;"/><line style="stroke:#181818;stroke-width:1.0;" x1="472.5" x2="472.5" y1="229.875" y2="369.3125"/><polygon fill="#181818" points="468.5,359.3125,472.5,369.3125,476.5,359.3125,472.5,363.3125" style="stroke:#181818;stroke-width:1.0;"/><line style="stroke:#181818;stroke-width:1.0;" x1="286" x2="286" y1="30" y2="50"/><polygon fill="#181818" points="282,40,286,50,290,40,286,44" style="stroke:#181818;stroke-width:1.0;"/><line style="stroke:#181818;stroke-width:1.0;" x1="286" x2="286" y1="370.8125" y2="389.3125"/><polygon fill="#181818" points="282,379.3125,286,389.3125,290,379.3125,286,383.3125" style="stroke:#181818;stroke-width:1.0;"/><!--MD5=[c470b1ed1f8ffe9fcbaff796ab05eff5]
@startuml login
start
split
    :Realizar login\npelo sistema;
    note right: O usuário deve\nestar cadastrado.
    repeat
        :Inserir e-mail\ninstitucional;
        :Inserir senha;
    repeat while (Dados inválidos?) is (Sim)
    ->Não;
split again
    :Realizar login\npelo google;
split again
    :Realizar login\npelo facebook;
end split
end
@enduml

PlantUML version 1.2022.3(Tue Mar 29 13:10:57 BRT 2022)
(GPL source distribution)
Java Runtime: OpenJDK Runtime Environment
JVM: Eclipse OpenJ9 VM
Default Encoding: UTF-8
Language: pt
Country: BR
--></g></svg>