<?xml version="1.0" encoding="UTF-8" standalone="no"?><svg xmlns="http://www.w3.org/2000/svg" xmlns:xlink="http://www.w3.org/1999/xlink" contentStyleType="text/css" height="334px" preserveAspectRatio="none" style="width:725px;height:334px;background:#FFFFFF;" version="1.1" viewBox="0 0 725 334" width="725px" zoomAndPan="magnify"><defs/><g><!--MD5=[23689a62b5e80204d759960f89ec0344]
entity Login--><g id="elem_Login"><rect fill="#F1F1F1" height="36.2969" rx="2.5" ry="2.5" style="stroke:#181818;stroke-width:0.5;" width="57" x="627" y="25.5"/><text fill="#000000" font-family="sans-serif" font-size="14" lengthAdjust="spacing" textLength="37" x="637" y="48.4951">Login</text></g><g id="elem_preencher"><ellipse cx="107.3371" cy="303.1674" fill="#F1F1F1" rx="101.3371" ry="22.6674" style="stroke:#181818;stroke-width:0.5;"/><text fill="#000000" font-family="sans-serif" font-size="14" lengthAdjust="spacing" textLength="167" x="23.8371" y="306.0141">Fazer login com sistema</text></g><g id="elem_confirm"><ellipse cx="501.5567" cy="43.5113" fill="#F1F1F1" rx="90.5567" ry="20.5113" style="stroke:#181818;stroke-width:0.5;"/><text fill="#000000" font-family="sans-serif" font-size="14" lengthAdjust="spacing" textLength="143" x="430.0567" y="46.358">Redirecionar Usuario</text></g><g id="elem_login"><ellipse cx="216.3288" cy="43.2658" fill="#F1F1F1" rx="69.3288" ry="16.2658" style="stroke:#181818;stroke-width:0.5;"/><text fill="#000000" font-family="sans-serif" font-size="14" lengthAdjust="spacing" textLength="91" x="167.8288" y="47.0133">Verificar login</text></g><g id="elem_google"><ellipse cx="348.5329" cy="302.8066" fill="#F1F1F1" rx="104.5329" ry="23.3066" style="stroke:#181818;stroke-width:0.5;"/><text fill="#000000" font-family="sans-serif" font-size="14" lengthAdjust="spacing" textLength="174" x="261.5329" y="305.6533">Fazer login com o google</text></g><g id="elem_redirecionar"><ellipse cx="603.6274" cy="303.0255" fill="#F1F1F1" rx="115.6274" ry="25.5255" style="stroke:#181818;stroke-width:0.5;"/><text fill="#000000" font-family="sans-serif" font-size="14" lengthAdjust="spacing" textLength="198" x="504.6274" y="305.8722">Redirecionar para o cadastro</text></g><!--MD5=[8fc3522a43f8c7199df5e09e5bb0188e]
entity user--><g id="elem_user"><ellipse cx="348.5" cy="150" fill="#F1F1F1" rx="8" ry="8" style="stroke:#181818;stroke-width:0.5;"/><path d="M348.5,158 L348.5,185 M335.5,166 L361.5,166 M348.5,185 L335.5,200 M348.5,185 L361.5,200 " fill="none" style="stroke:#181818;stroke-width:0.5;"/><text fill="#000000" font-family="sans-serif" font-size="14" lengthAdjust="spacing" textLength="52" x="322.5" y="214.4951">Usuario</text></g><!--MD5=[b638ce1f52674266c2c0d1781b713da9]
entity sist--><g id="elem_sist"><ellipse cx="348.5" cy="14" fill="#F1F1F1" rx="8" ry="8" style="stroke:#181818;stroke-width:0.5;"/><path d="M348.5,22 L348.5,49 M335.5,30 L361.5,30 M348.5,49 L335.5,64 M348.5,49 L361.5,64 " fill="none" style="stroke:#181818;stroke-width:0.5;"/><text fill="#000000" font-family="sans-serif" font-size="14" lengthAdjust="spacing" textLength="55" x="321" y="78.4951">Sistema</text></g><!--MD5=[df9007c8c18c97fc978801957695d329]
link sist to confirm--><g id="link_sist_confirm"><path d="M376.29,43.5 C386.01,43.5 395.73,43.5 405.45,43.5 " fill="none" id="sist-to-confirm" style="stroke:#181818;stroke-width:1.0;"/><polygon fill="#181818" points="410.53,43.5,401.53,39.5,405.53,43.5,401.53,47.5,410.53,43.5" style="stroke:#181818;stroke-width:1.0;"/></g><!--MD5=[9681e0563a67385aadb3714ee7ad13e6]
reverse link login to sist--><g id="link_login_sist"><path d="M291.25,43.5 C301.07,43.5 310.89,43.5 320.72,43.5 " fill="none" id="login-backto-sist" style="stroke:#181818;stroke-width:1.0;"/><polygon fill="#181818" points="286.11,43.5,295.11,47.5,291.11,43.5,295.11,39.5,286.11,43.5" style="stroke:#181818;stroke-width:1.0;"/></g><!--MD5=[4c46c630c5bd97ce7ee56abd14cb7e1e]
link sist to user--><g id="link_sist_user"><path d="M348.5,81.83 C348.5,98.67 348.5,118.65 348.5,136.06 " fill="none" id="sist-to-user" style="stroke:#181818;stroke-width:1.0;"/><polygon fill="#181818" points="348.5,141.37,352.5,132.37,348.5,136.37,344.5,132.37,348.5,141.37" style="stroke:#181818;stroke-width:1.0;"/></g><!--MD5=[59e48241bcf53fc6b237f701afc1aea7]
link user to google--><g id="link_user_google"><path d="M348.5,217.61 C348.5,235.83 348.5,257.4 348.5,274.18 " fill="none" id="user-to-google" style="stroke:#181818;stroke-width:1.0;"/><polygon fill="#181818" points="348.5,279.22,352.5,270.22,348.5,274.22,344.5,270.22,348.5,279.22" style="stroke:#181818;stroke-width:1.0;"/></g><!--MD5=[83157581030b9deab2176d9d4c9df87c]
link user to preencher--><g id="link_user_preencher"><path d="M322.25,193.73 C281.24,214.41 201.51,254.61 151.58,279.78 " fill="none" id="user-to-preencher" style="stroke:#181818;stroke-width:1.0;"/><polygon fill="#181818" points="146.84,282.16,156.6769,281.6751,151.3035,279.9068,153.0719,274.5335,146.84,282.16" style="stroke:#181818;stroke-width:1.0;"/></g><!--MD5=[88b127768de05050228b38581af580e7]
link user to redirecionar--><g id="link_user_redirecionar"><path d="M374.83,193.05 C416.46,212.88 498.24,251.85 551.87,277.4 " fill="none" id="user-to-redirecionar" style="stroke:#181818;stroke-width:1.0;"/><polygon fill="#181818" points="556.65,279.68,550.2541,272.1905,552.1386,277.5242,546.8049,279.4087,556.65,279.68" style="stroke:#181818;stroke-width:1.0;"/></g><!--MD5=[80b2f0f381c9830c5a6d1a3d50d73d44]
@startuml login
skinparam Style strictuml

(Fazer login com sistema) as preencher
(Redirecionar Usuario) as confirm
(Verificar login) as login 
(Fazer login com o google) as google
(Redirecionar para o cadastro) as redirecionar

:Usuario: as user
:Sistema:  as sist

rectangle Login{
    sist -> confirm
    sist -left-> login
    sist - -> user 
    user - ->google
    user - ->preencher
    user - ->redirecionar
}
@enduml

PlantUML version 1.2022.3(Tue Mar 29 13:10:57 BRT 2022)
(GPL source distribution)
Java Runtime: OpenJDK Runtime Environment
JVM: Eclipse OpenJ9 VM
Default Encoding: UTF-8
Language: pt
Country: BR
--></g></svg>