<?xml version="1.0" encoding="UTF-8" standalone="no"?><svg xmlns="http://www.w3.org/2000/svg" xmlns:xlink="http://www.w3.org/1999/xlink" contentStyleType="text/css" height="884px" preserveAspectRatio="none" style="width:826px;height:884px;background:#FFFFFF;" version="1.1" viewBox="0 0 826 884" width="826px" zoomAndPan="magnify"><defs/><g><ellipse cx="136" cy="48.6982" fill="#222222" rx="10" ry="10" style="stroke:#222222;stroke-width:1.0;"/><rect fill="#F1F1F1" height="47.9375" rx="12.5" ry="12.5" style="stroke:#181818;stroke-width:0.5;" width="230" x="21" y="78.6982"/><text fill="#000000" font-family="sans-serif" font-size="12" lengthAdjust="spacing" textLength="210" x="31" y="99.8369">Receber solicitação de formulário</text><text fill="#000000" font-family="sans-serif" font-size="12" lengthAdjust="spacing" textLength="108" x="31" y="113.8057">de dispensa pelo</text><text fill="#000000" font-family="sans-serif" font-size="12" font-weight="bold" lengthAdjust="spacing" textLength="40" x="143" y="113.8057">aluno</text><rect fill="#F1F1F1" height="33.9688" rx="12.5" ry="12.5" style="stroke:#181818;stroke-width:0.5;" width="206" x="33" y="146.6357"/><text fill="#000000" font-family="sans-serif" font-size="12" lengthAdjust="spacing" textLength="142" x="43" y="167.7744">Entregar formulário ao</text><text fill="#000000" font-family="sans-serif" font-size="12" font-weight="bold" lengthAdjust="spacing" textLength="40" x="189" y="167.7744">aluno</text><rect fill="#F1F1F1" height="47.9375" rx="12.5" ry="12.5" style="stroke:#181818;stroke-width:0.5;" width="217" x="27.5" y="200.6045"/><text fill="#000000" font-family="sans-serif" font-size="12" lengthAdjust="spacing" textLength="194" x="37.5" y="221.7432">Receber formulário preenchido</text><text fill="#000000" font-family="sans-serif" font-size="12" lengthAdjust="spacing" textLength="110" x="37.5" y="235.7119">e documentos da</text><text fill="#000000" font-family="sans-serif" font-size="12" font-weight="bold" lengthAdjust="spacing" textLength="83" x="151.5" y="235.7119">IES anterior</text><rect fill="#F1F1F1" height="33.9688" rx="12.5" ry="12.5" style="stroke:#181818;stroke-width:0.5;" width="167" x="52.5" y="268.542"/><text fill="#000000" font-family="sans-serif" font-size="12" lengthAdjust="spacing" textLength="147" x="62.5" y="289.6807">Conferir documentação</text><rect fill="#F1F1F1" height="47.9375" rx="12.5" ry="12.5" style="stroke:#181818;stroke-width:0.5;" width="189" x="41.5" y="322.5107"/><text fill="#000000" font-family="sans-serif" font-size="12" lengthAdjust="spacing" textLength="136" x="51.5" y="343.6494">Enviar documentação</text><text fill="#000000" font-family="sans-serif" font-size="12" lengthAdjust="spacing" textLength="8" x="51.5" y="357.6182">a</text><text fill="#000000" font-family="sans-serif" font-size="12" font-weight="bold" lengthAdjust="spacing" textLength="157" x="63.5" y="357.6182">coordenação do curso</text><line style="stroke:#000000;stroke-width:1.5;" x1="15" x2="15" y1="12.7451" y2="872.6006"/><rect fill="#F1F1F1" height="33.9688" rx="12.5" ry="12.5" style="stroke:#181818;stroke-width:0.5;" width="170" x="314" y="390.4482"/><text fill="#000000" font-family="sans-serif" font-size="12" lengthAdjust="spacing" textLength="150" x="324" y="411.5869">Receber documentação</text><rect fill="#F1F1F1" height="33.9688" rx="12.5" ry="12.5" style="stroke:#181818;stroke-width:0.5;" width="272" x="263" y="444.417"/><text fill="#000000" font-family="sans-serif" font-size="12" lengthAdjust="spacing" textLength="252" x="273" y="465.5557">Avaliar se as diciplinas são equivalentes</text><ellipse cx="399" cy="556.7881" rx="10" ry="10" style="stroke:#222222;stroke-width:1.5;fill:none;"/><line style="stroke:#222222;stroke-width:2.5;fill:none;" x1="392.8128" x2="405.1872" y1="550.6009" y2="562.9753"/><line style="stroke:#222222;stroke-width:2.5;fill:none;" x1="405.1872" x2="392.8128" y1="550.6009" y2="562.9753"/><polygon fill="#F1F1F1" points="310,498.3857,488,498.3857,500,510.3857,488,522.3857,310,522.3857,298,510.3857,310,498.3857" style="stroke:#181818;stroke-width:0.5;"/><text fill="#000000" font-family="sans-serif" font-size="11" lengthAdjust="spacing" textLength="21" x="403" y="532.5962">não</text><text fill="#000000" font-family="sans-serif" font-size="11" lengthAdjust="spacing" textLength="178" x="310" y="514.1938">As diciplinas são equivalentes?</text><rect fill="#F1F1F1" height="33.9688" rx="12.5" ry="12.5" style="stroke:#181818;stroke-width:0.5;" width="272" x="263" y="608.7881"/><text fill="#000000" font-family="sans-serif" font-size="12" lengthAdjust="spacing" textLength="252" x="273" y="629.9268">Separar diciplinas aceitas e não aceitas</text><rect fill="#F1F1F1" height="47.9375" rx="12.5" ry="12.5" style="stroke:#181818;stroke-width:0.5;" width="276" x="261" y="662.7568"/><text fill="#000000" font-family="sans-serif" font-size="12" lengthAdjust="spacing" textLength="151" x="271" y="683.8955">Enviar relação diciplinas</text><text fill="#000000" font-family="sans-serif" font-size="12" lengthAdjust="spacing" textLength="58" x="271" y="697.8643">aceitas à</text><text fill="#000000" font-family="sans-serif" font-size="12" font-weight="bold" lengthAdjust="spacing" textLength="194" x="333" y="697.8643">coordenação de graduação</text><line style="stroke:#000000;stroke-width:1.5;" x1="255" x2="255" y1="12.7451" y2="872.6006"/><rect fill="#F1F1F1" height="33.9688" rx="12.5" ry="12.5" style="stroke:#181818;stroke-width:0.5;" width="255" x="547" y="730.6943"/><text fill="#000000" font-family="sans-serif" font-size="12" lengthAdjust="spacing" textLength="235" x="557" y="751.833">Receber relação de diciplinas aceitas</text><rect fill="#F1F1F1" height="47.9375" rx="12.5" ry="12.5" style="stroke:#181818;stroke-width:0.5;" width="175" x="587" y="784.6631"/><text fill="#000000" font-family="sans-serif" font-size="12" lengthAdjust="spacing" textLength="139" x="597" y="805.8018">Realizar alterações no</text><text fill="#000000" font-family="sans-serif" font-size="12" lengthAdjust="spacing" textLength="155" x="597" y="819.7705">histórico escolar do Siga</text><ellipse cx="674.5" cy="862.6006" rx="10" ry="10" style="stroke:#222222;stroke-width:1.5;fill:none;"/><line style="stroke:#222222;stroke-width:2.5;fill:none;" x1="668.3128" x2="680.6872" y1="856.4134" y2="868.7878"/><line style="stroke:#222222;stroke-width:2.5;fill:none;" x1="680.6872" x2="668.3128" y1="856.4134" y2="868.7878"/><line style="stroke:#000000;stroke-width:1.5;fill:none;" x1="541" x2="541" y1="12.7451" y2="872.6006"/><line style="stroke:#000000;stroke-width:1.5;fill:none;" x1="806" x2="806" y1="12.7451" y2="872.6006"/><line style="stroke:#181818;stroke-width:1.0;fill:none;" x1="136" x2="136" y1="58.6982" y2="78.6982"/><polygon fill="#181818" points="132,68.6982,136,78.6982,140,68.6982,136,72.6982" style="stroke:#181818;stroke-width:1.0;"/><line style="stroke:#181818;stroke-width:1.0;" x1="136" x2="136" y1="126.6357" y2="146.6357"/><polygon fill="#181818" points="132,136.6357,136,146.6357,140,136.6357,136,140.6357" style="stroke:#181818;stroke-width:1.0;"/><line style="stroke:#181818;stroke-width:1.0;" x1="136" x2="136" y1="180.6045" y2="200.6045"/><polygon fill="#181818" points="132,190.6045,136,200.6045,140,190.6045,136,194.6045" style="stroke:#181818;stroke-width:1.0;"/><line style="stroke:#181818;stroke-width:1.0;" x1="136" x2="136" y1="248.542" y2="268.542"/><polygon fill="#181818" points="132,258.542,136,268.542,140,258.542,136,262.542" style="stroke:#181818;stroke-width:1.0;"/><line style="stroke:#181818;stroke-width:1.0;" x1="136" x2="136" y1="302.5107" y2="322.5107"/><polygon fill="#181818" points="132,312.5107,136,322.5107,140,312.5107,136,316.5107" style="stroke:#181818;stroke-width:1.0;"/><line style="stroke:#181818;stroke-width:1.0;" x1="399" x2="399" y1="424.417" y2="444.417"/><polygon fill="#181818" points="395,434.417,399,444.417,403,434.417,399,438.417" style="stroke:#181818;stroke-width:1.0;"/><line style="stroke:#181818;stroke-width:1.0;" x1="399" x2="399" y1="522.3857" y2="546.7881"/><polygon fill="#181818" points="395,536.7881,399,546.7881,403,536.7881,399,540.7881" style="stroke:#181818;stroke-width:1.0;"/><line style="stroke:#181818;stroke-width:1.0;" x1="500" x2="512" y1="510.3857" y2="510.3857"/><polygon fill="#181818" points="508,543.7881,512,553.7881,516,543.7881,512,547.7881" style="stroke:#181818;stroke-width:1.0;"/><line style="stroke:#181818;stroke-width:1.0;" x1="512" x2="512" y1="510.3857" y2="588.7881"/><line style="stroke:#181818;stroke-width:1.0;" x1="512" x2="399" y1="588.7881" y2="588.7881"/><line style="stroke:#181818;stroke-width:1.0;" x1="399" x2="399" y1="588.7881" y2="608.7881"/><polygon fill="#181818" points="395,598.7881,399,608.7881,403,598.7881,399,602.7881" style="stroke:#181818;stroke-width:1.0;"/><line style="stroke:#181818;stroke-width:1.0;" x1="399" x2="399" y1="478.3857" y2="498.3857"/><polygon fill="#181818" points="395,488.3857,399,498.3857,403,488.3857,399,492.3857" style="stroke:#181818;stroke-width:1.0;"/><line style="stroke:#181818;stroke-width:1.0;" x1="399" x2="399" y1="642.7568" y2="662.7568"/><polygon fill="#181818" points="395,652.7568,399,662.7568,403,652.7568,399,656.7568" style="stroke:#181818;stroke-width:1.0;"/><line style="stroke:#181818;stroke-width:1.0;" x1="674.5" x2="674.5" y1="764.6631" y2="784.6631"/><polygon fill="#181818" points="670.5,774.6631,674.5,784.6631,678.5,774.6631,674.5,778.6631" style="stroke:#181818;stroke-width:1.0;"/><line style="stroke:#181818;stroke-width:1.0;" x1="674.5" x2="674.5" y1="832.6006" y2="852.6006"/><polygon fill="#181818" points="670.5,842.6006,674.5,852.6006,678.5,842.6006,674.5,846.6006" style="stroke:#181818;stroke-width:1.0;"/><line style="stroke:#181818;stroke-width:1.0;" x1="136" x2="136" y1="370.4482" y2="375.4482"/><line style="stroke:#181818;stroke-width:1.0;" x1="136" x2="399" y1="375.4482" y2="375.4482"/><line style="stroke:#181818;stroke-width:1.0;" x1="399" x2="399" y1="375.4482" y2="390.4482"/><polygon fill="#181818" points="395,380.4482,399,390.4482,403,380.4482,399,384.4482" style="stroke:#181818;stroke-width:1.0;"/><line style="stroke:#181818;stroke-width:1.0;" x1="399" x2="399" y1="710.6943" y2="715.6943"/><line style="stroke:#181818;stroke-width:1.0;" x1="399" x2="674.5" y1="715.6943" y2="715.6943"/><line style="stroke:#181818;stroke-width:1.0;" x1="674.5" x2="674.5" y1="715.6943" y2="730.6943"/><polygon fill="#181818" points="670.5,720.6943,674.5,730.6943,678.5,720.6943,674.5,724.6943" style="stroke:#181818;stroke-width:1.0;"/><text fill="#000000" font-family="sans-serif" font-size="18" lengthAdjust="spacing" textLength="171" x="49.5" y="29.4531">Secretaria do curso</text><text fill="#000000" font-family="sans-serif" font-size="18" lengthAdjust="spacing" textLength="186" x="305" y="29.4531">Cordenação do curso</text><text fill="#000000" font-family="sans-serif" font-size="18" lengthAdjust="spacing" textLength="220" x="563.5" y="29.4531">Cordenação de gradução</text><!--MD5=[32d40b390c5c925eb2813eb4dba11cb7]
@startuml Processo para UPE aceitar a carga horária da IES anterior.
|Secretaria do curso|
start
:Receber solicitação de formulário
de dispensa pelo **aluno**;
:Entregar formulário ao **aluno**;
:Receber formulário preenchido
e documentos da **IES anterior**;
:Conferir documentação;
:Enviar documentação
a **coordenação do curso**;
|Secretaria do curso|
|Cordenação do curso|
:Receber documentação;
:Avaliar se as diciplinas são equivalentes;
if (As diciplinas são equivalentes?) then (não)
    end
    endif
    :Separar diciplinas aceitas e não aceitas;
    :Enviar relação diciplinas
    aceitas à **coordenação de graduação**;
|Cordenação do curso|
|Cordenação de gradução|
:Receber relação de diciplinas aceitas;
:Realizar alterações no 
histórico escolar do Siga;
end
|Cordenação de gradução|
@enduml

PlantUML version 1.2022.3(Tue Mar 29 13:10:57 BRT 2022)
(GPL source distribution)
Java Runtime: OpenJDK Runtime Environment
JVM: Eclipse OpenJ9 VM
Default Encoding: UTF-8
Language: pt
Country: BR
--></g></svg>