<?xml version="1.0" encoding="UTF-8" standalone="no"?><svg xmlns="http://www.w3.org/2000/svg" xmlns:xlink="http://www.w3.org/1999/xlink" contentStyleType="text/css" height="1383px" preserveAspectRatio="none" style="width:2472px;height:1383px;background:#FFFFFF;" version="1.1" viewBox="0 0 2472 1383" width="2472px" zoomAndPan="magnify"><defs/><g><rect height="26.2969" style="stroke:#00000000;stroke-width:1.0;fill:none;" width="491" x="983.5" y="5"/><text fill="#000000" font-family="sans-serif" font-size="14" font-weight="bold" lengthAdjust="spacing" textLength="481" x="988.5" y="22.9951">Visão Geral do Processo de Reaproveitamento de Disciplinas</text><!--MD5=[de4851d08910b1ff0ebb9268075a9b79]
cluster Discente--><g id="cluster_Discente"><rect height="388" rx="2.5" ry="2.5" style="stroke:#181818;stroke-width:1.0;fill:none;" width="1834" x="118" y="527.2969"/><text fill="#000000" font-family="sans-serif" font-size="14" font-weight="bold" lengthAdjust="spacing" textLength="69" x="1000.5" y="542.292">Discente</text></g><!--MD5=[50875174547eaddaa26024cb4eb3ad43]
cluster Escolaridade--><g id="cluster_Escolaridade"><rect height="438" rx="2.5" ry="2.5" style="stroke:#181818;stroke-width:1.0;fill:none;" width="2424" x="42" y="939.2969"/><text fill="#000000" font-family="sans-serif" font-size="14" font-weight="bold" lengthAdjust="spacing" textLength="100" x="1204" y="954.292">Escolaridade</text></g><!--MD5=[96b09d512c6a533aed0b1b8a51f3e70d]
cluster Coordenações--><g id="cluster_Coordenações"><rect height="452" rx="2.5" ry="2.5" style="stroke:#181818;stroke-width:1.0;fill:none;" width="1457" x="7" y="44.2969"/><text fill="#000000" font-family="sans-serif" font-size="14" font-weight="bold" lengthAdjust="spacing" textLength="115" x="678" y="59.292">Coordenações</text></g><!--MD5=[23f93e0cdbac79b764b6b1e80a89cb93]
entity aluno--><g id="elem_aluno"><ellipse cx="220" cy="691.7969" fill="#F1F1F1" rx="8" ry="8" style="stroke:#181818;stroke-width:0.5;"/><path d="M220,699.7969 L220,726.7969 M207,707.7969 L233,707.7969 M220,726.7969 L207,741.7969 M220,726.7969 L233,741.7969 " fill="none" style="stroke:#181818;stroke-width:0.5;"/><text fill="#000000" font-family="sans-serif" font-size="14" lengthAdjust="spacing" textLength="62" x="189" y="756.292">Discente</text></g><g id="elem_preencherRequerimento"><ellipse cx="730.4911" cy="639.1951" fill="#F1F1F1" rx="104.9911" ry="23.3982" style="stroke:#181818;stroke-width:0.5;"/><text fill="#000000" font-family="sans-serif" font-size="14" lengthAdjust="spacing" textLength="175" x="642.9911" y="642.0418">Preencher Requerimento</text></g><g id="elem_listarRequerimentos"><ellipse cx="730.3318" cy="804.1632" fill="#F1F1F1" rx="92.3318" ry="20.8664" style="stroke:#181818;stroke-width:0.5;"/><text fill="#000000" font-family="sans-serif" font-size="14" lengthAdjust="spacing" textLength="147" x="656.8318" y="807.0099">Listar Requerimentos</text></g><g id="elem_excluirRequerimento"><ellipse cx="1246.3318" cy="878.1632" fill="#F1F1F1" rx="92.3318" ry="20.8664" style="stroke:#181818;stroke-width:0.5;"/><text fill="#000000" font-family="sans-serif" font-size="14" lengthAdjust="spacing" textLength="147" x="1172.8318" y="881.0099">Excluir Requerimento</text></g><g id="elem_solicitaReaproveitamento"><ellipse cx="1246.6316" cy="638.5232" fill="#F1F1F1" rx="109.1316" ry="24.2263" style="stroke:#181818;stroke-width:0.5;"/><text fill="#000000" font-family="sans-serif" font-size="14" lengthAdjust="spacing" textLength="184" x="1154.6316" y="641.3699">Solicitar Reaproveitamento</text></g><g id="elem_anexarDocumento"><ellipse cx="220.1635" cy="605.4296" fill="#F1F1F1" rx="86.1635" ry="19.6327" style="stroke:#181818;stroke-width:0.5;"/><text fill="#000000" font-family="sans-serif" font-size="14" lengthAdjust="spacing" textLength="133" x="153.6635" y="608.2763">Anexar Documento</text></g><g id="elem_monitorarRequerimento"><ellipse cx="730.4496" cy="721.2868" fill="#F1F1F1" rx="105.4496" ry="23.4899" style="stroke:#181818;stroke-width:0.5;"/><text fill="#000000" font-family="sans-serif" font-size="14" lengthAdjust="spacing" textLength="176" x="642.4496" y="724.1335">Monitorar Requerimentos</text></g><g id="elem_detalharRequerimento"><ellipse cx="1246.6147" cy="719.4198" fill="#F1F1F1" rx="98.6147" ry="22.1229" style="stroke:#181818;stroke-width:0.5;"/><text fill="#000000" font-family="sans-serif" font-size="14" lengthAdjust="spacing" textLength="161" x="1166.1147" y="722.2665">Detalhar Requerimento</text></g><g id="elem_pesquisarRequerimento"><ellipse cx="1246.6608" cy="799.329" fill="#F1F1F1" rx="103.1608" ry="23.0322" style="stroke:#181818;stroke-width:0.5;"/><text fill="#000000" font-family="sans-serif" font-size="14" lengthAdjust="spacing" textLength="171" x="1161.1608" y="802.1757">Pesquisar Requerimento</text></g><g id="elem_revisarRequerimento"><ellipse cx="1788.9721" cy="709.0913" fill="#F1F1F1" rx="134.4721" ry="29.2944" style="stroke:#181818;stroke-width:0.5;"/><text fill="#000000" font-family="sans-serif" font-size="14" lengthAdjust="spacing" textLength="238" x="1669.9721" y="711.938">Revisar Pendências Requerimento</text></g><g id="elem_detalharAnaliseReaproveitamento"><ellipse cx="1788.8886" cy="598.0746" fill="#F1F1F1" rx="146.8886" ry="31.7777" style="stroke:#181818;stroke-width:0.5;"/><text fill="#000000" font-family="sans-serif" font-size="14" lengthAdjust="spacing" textLength="264" x="1656.8886" y="600.9213">Detalhar Analise de Reaproveitamento</text></g><!--MD5=[b14a00f792c99cb1ea4d3ac7caf47d49]
entity escolaridade--><g id="elem_escolaridade"><ellipse cx="730.5" cy="1067.7969" fill="#F1F1F1" rx="8" ry="8" style="stroke:#181818;stroke-width:0.5;"/><path d="M730.5,1075.7969 L730.5,1102.7969 M717.5,1083.7969 L743.5,1083.7969 M730.5,1102.7969 L717.5,1117.7969 M730.5,1102.7969 L743.5,1117.7969 " fill="none" style="stroke:#181818;stroke-width:0.5;"/><text fill="#000000" font-family="sans-serif" font-size="14" lengthAdjust="spacing" textLength="88" x="686.5" y="1132.292">Escolaridade</text></g><g id="elem_listarSolicitacao"><ellipse cx="730.6716" cy="1222.1312" fill="#F1F1F1" rx="152.1716" ry="32.8343" style="stroke:#181818;stroke-width:0.5;"/><text fill="#000000" font-family="sans-serif" font-size="14" lengthAdjust="spacing" textLength="275" x="593.1716" y="1224.9779">Listar Solicitaçoes de Reaproveitamento</text></g><g id="elem_receberSolicitacao"><ellipse cx="219.9172" cy="1300.4803" fill="#F1F1F1" rx="158.9172" ry="34.1834" style="stroke:#181818;stroke-width:0.5;"/><text fill="#000000" font-family="sans-serif" font-size="14" lengthAdjust="spacing" textLength="289" x="75.4172" y="1303.327">Receber Solicitação de Reaproveitamento</text></g><g id="elem_pesquisarSolicitacao"><ellipse cx="1246.2652" cy="1326.3499" fill="#F1F1F1" rx="163.2652" ry="35.053" style="stroke:#181818;stroke-width:0.5;"/><text fill="#000000" font-family="sans-serif" font-size="14" lengthAdjust="spacing" textLength="298" x="1097.2652" y="1329.1966">Pesquisar Solicitação de Reaproveitamento</text></g><g id="elem_detalharSolicitacao"><ellipse cx="1246.4346" cy="1222.3838" fill="#F1F1F1" rx="158.4346" ry="34.0869" style="stroke:#181818;stroke-width:0.5;"/><text fill="#000000" font-family="sans-serif" font-size="14" lengthAdjust="spacing" textLength="288" x="1102.4346" y="1225.2305">Detalhar Solicitação de Reaproveitamento</text></g><g id="elem_monitorarSolicitacao"><ellipse cx="219.8149" cy="1146.0599" fill="#F1F1F1" rx="161.8149" ry="34.763" style="stroke:#181818;stroke-width:0.5;"/><text fill="#000000" font-family="sans-serif" font-size="14" lengthAdjust="spacing" textLength="295" x="72.3149" y="1148.9065">Monitorar Solicitação de Reaproveitamento</text></g><g id="elem_analisarDocumentacao"><ellipse cx="1788.7745" cy="1290.1518" fill="#F1F1F1" rx="224.7745" ry="47.3549" style="stroke:#181818;stroke-width:0.5;"/><text fill="#000000" font-family="sans-serif" font-size="14" lengthAdjust="spacing" textLength="424" x="1576.7745" y="1292.9985">Analisar Documentacao de Solicitaçoes de Reaproveitamento</text></g><g id="elem_solicitarRevisao"><ellipse cx="1788.7751" cy="1165.0519" fill="#F1F1F1" rx="199.2751" ry="42.255" style="stroke:#181818;stroke-width:0.5;"/><text fill="#000000" font-family="sans-serif" font-size="14" lengthAdjust="spacing" textLength="372" x="1602.7751" y="1167.8986">Solicitar Revisão de Solicitaçoes de Reaproveitamento</text></g><g id="elem_listarAnalisesReaproveitamento"><ellipse cx="1246.6894" cy="1005.2348" fill="#F1F1F1" rx="140.1894" ry="30.4379" style="stroke:#181818;stroke-width:0.5;"/><text fill="#000000" font-family="sans-serif" font-size="14" lengthAdjust="spacing" textLength="250" x="1121.6894" y="1008.0814">Listar Analises de Reaproveitamento</text></g><g id="elem_processarAnaliseReaproveitamento"><ellipse cx="1789.1316" cy="1009.5232" fill="#F1F1F1" rx="109.1316" ry="24.2263" style="stroke:#181818;stroke-width:0.5;"/><text fill="#000000" font-family="sans-serif" font-size="14" lengthAdjust="spacing" textLength="184" x="1697.1316" y="1012.3699">Analisar Reaproveitamento</text></g><g id="elem_pesquisarAnaliseReaproveitamento"><ellipse cx="1246.6907" cy="1120.535" fill="#F1F1F1" rx="151.6907" ry="32.7381" style="stroke:#181818;stroke-width:0.5;"/><text fill="#000000" font-family="sans-serif" font-size="14" lengthAdjust="spacing" textLength="274" x="1109.6907" y="1123.3817">Pesquisar Analise de Reaproveitamento</text></g><g id="elem_solicitarParecer"><ellipse cx="2288.9091" cy="1110.4787" fill="#F1F1F1" rx="146.4091" ry="31.6818" style="stroke:#181818;stroke-width:0.5;"/><text fill="#000000" font-family="sans-serif" font-size="14" lengthAdjust="spacing" textLength="263" x="2157.4091" y="1113.3254">Solicitar Parecer de Reaproveitamento</text></g><g id="elem_consultarParecer"><ellipse cx="2288.8486" cy="1009.3666" fill="#F1F1F1" rx="160.8486" ry="34.5697" style="stroke:#181818;stroke-width:0.5;"/><text fill="#000000" font-family="sans-serif" font-size="14" lengthAdjust="spacing" textLength="293" x="2142.3486" y="1012.2133">Consultar Pareceres de Reaproveitamento</text></g><g id="elem_monitorarAnalise"><ellipse cx="220.2487" cy="1043.2466" fill="#F1F1F1" rx="150.2487" ry="32.4497" style="stroke:#181818;stroke-width:0.5;"/><text fill="#000000" font-family="sans-serif" font-size="14" lengthAdjust="spacing" textLength="271" x="84.7487" y="1046.0933">Monitorar Analise de Reaproveitamento</text></g><!--MD5=[e59e8ef62fe6c335c4b573f8dd8d949e]
entity coordenacao--><g id="elem_coordenacao"><ellipse cx="220" cy="198.7969" fill="#F1F1F1" rx="8" ry="8" style="stroke:#181818;stroke-width:0.5;"/><path d="M220,206.7969 L220,233.7969 M207,214.7969 L233,214.7969 M220,233.7969 L207,248.7969 M220,233.7969 L233,248.7969 " fill="none" style="stroke:#181818;stroke-width:0.5;"/><text fill="#000000" font-family="sans-serif" font-size="14" lengthAdjust="spacing" textLength="91" x="174.5" y="263.292">Coordenador</text></g><!--MD5=[65b27f256e065fd1839f63b8d730a439]
entity docente--><g id="elem_docente"><ellipse cx="220" cy="87.7969" fill="#F1F1F1" rx="8" ry="8" style="stroke:#181818;stroke-width:0.5;"/><path d="M220,95.7969 L220,122.7969 M207,103.7969 L233,103.7969 M220,122.7969 L207,137.7969 M220,122.7969 L233,137.7969 " fill="none" style="stroke:#181818;stroke-width:0.5;"/><text fill="#000000" font-family="sans-serif" font-size="14" lengthAdjust="spacing" textLength="60" x="190" y="152.292">Docente</text></g><g id="elem_monitorarParecer"><ellipse cx="730.2535" cy="244.2476" fill="#F1F1F1" rx="200.2535" ry="42.4507" style="stroke:#181818;stroke-width:0.5;"/><text fill="#000000" font-family="sans-serif" font-size="14" lengthAdjust="spacing" textLength="374" x="543.2535" y="247.0942">Monitorar Solicitação de Parecer de Reaproveitamento</text></g><g id="elem_pesquisarParecer"><ellipse cx="1246.7214" cy="345.5411" fill="#F1F1F1" rx="201.7214" ry="42.7443" style="stroke:#181818;stroke-width:0.5;"/><text fill="#000000" font-family="sans-serif" font-size="14" lengthAdjust="spacing" textLength="377" x="1058.2214" y="348.3878">Pesquisar Solicitação de Parecer de Reaproveitamento</text></g><g id="elem_detalharParecer"><ellipse cx="219.8303" cy="343.0629" fill="#F1F1F1" rx="196.8303" ry="41.7661" style="stroke:#181818;stroke-width:0.5;"/><text fill="#000000" font-family="sans-serif" font-size="14" lengthAdjust="spacing" textLength="367" x="36.3303" y="345.9096">Detalhar Solicitação de Parecer de Reaproveitamento</text></g><g id="elem_solicitarParecerDocente"><ellipse cx="730.3278" cy="360.1624" fill="#F1F1F1" rx="177.3278" ry="37.8656" style="stroke:#181818;stroke-width:0.5;"/><text fill="#000000" font-family="sans-serif" font-size="14" lengthAdjust="spacing" textLength="327" x="566.8278" y="363.0091">Solicitar Parecer Docente de Reaproveitamento</text></g><g id="elem_emitirParecer"><ellipse cx="220.2348" cy="450.5438" fill="#F1F1F1" rx="139.2348" ry="30.247" style="stroke:#181818;stroke-width:0.5;"/><text fill="#000000" font-family="sans-serif" font-size="14" lengthAdjust="spacing" textLength="248" x="96.2348" y="453.3905">Emitir Parecer de Reaproveitamento</text></g><g id="elem_monitorarParecerDocente"><ellipse cx="730.6671" cy="118.3303" fill="#F1F1F1" rx="183.1671" ry="39.0334" style="stroke:#181818;stroke-width:0.5;"/><text fill="#000000" font-family="sans-serif" font-size="14" lengthAdjust="spacing" textLength="339" x="561.1671" y="121.177">Monitorar Parecer Docente de Reaproveitamento</text></g><g id="elem_emitirParecerDocente"><ellipse cx="1246.5447" cy="117.2058" fill="#F1F1F1" rx="170.0447" ry="36.4089" style="stroke:#181818;stroke-width:0.5;"/><text fill="#000000" font-family="sans-serif" font-size="14" lengthAdjust="spacing" textLength="312" x="1090.5447" y="120.0525">Emitir Parecer Docente de Reaproveitamento</text></g><g id="elem_pesquisarParecerDocente"><ellipse cx="1246.6285" cy="228.1226" fill="#F1F1F1" rx="184.6285" ry="39.3257" style="stroke:#181818;stroke-width:0.5;"/><text fill="#000000" font-family="sans-serif" font-size="14" lengthAdjust="spacing" textLength="342" x="1075.6285" y="230.9693">Pesquisar Parecer Docente de Reaproveitamento</text></g><!--MD5=[3e520631a16103735040c2f4459d2c39]
link aluno to preencherRequerimento--><g id="link_aluno_preencherRequerimento"><path d="M251.29,716.4169 C326.29,704.3169 522.99,672.5969 639.43,653.8169 " fill="none" id="aluno-to-preencherRequerimento" style="stroke:#181818;stroke-width:1.0;"/><polygon fill="#181818" points="644.57,652.9969,635.0465,650.4862,639.6342,653.7957,636.3247,658.3834,644.57,652.9969" style="stroke:#181818;stroke-width:1.0;"/></g><!--MD5=[574966e3f36bc52c9336239a81005077]
link aluno to monitorarRequerimento--><g id="link_aluno_monitorarRequerimento"><path d="M251.29,721.2969 C322.18,721.2969 501.81,721.2969 619.61,721.2969 " fill="none" id="aluno-to-monitorarRequerimento" style="stroke:#181818;stroke-width:1.0;"/><polygon fill="#181818" points="624.82,721.2969,615.82,717.2969,619.82,721.2969,615.82,725.2969,624.82,721.2969" style="stroke:#181818;stroke-width:1.0;"/></g><!--MD5=[14dfe9f1c29eb6e759adae22c142143e]
link aluno to listarRequerimentos--><g id="link_aluno_listarRequerimentos"><path d="M251.29,726.2369 C328.6,738.8569 535.26,772.5969 649.99,791.3169 " fill="none" id="aluno-to-listarRequerimentos" style="stroke:#181818;stroke-width:1.0;"/><polygon fill="#181818" points="655.04,792.1469,646.8099,786.7371,650.1065,791.3341,645.5095,794.6307,655.04,792.1469" style="stroke:#181818;stroke-width:1.0;"/></g><!--MD5=[297970befe2678eebed90ef1811287c7]
link preencherRequerimento to solicitaReaproveitamento--><g id="link_preencherRequerimento_solicitaReaproveitamento"><path d="M835.51,639.4069 C889.13,639.4369 955.57,639.4269 1015,639.2969 C1053.2,639.2169 1094.97,639.0569 1132.32,638.8869 " fill="none" id="preencherRequerimento-to-solicitaReaproveitamento" style="stroke:#181818;stroke-width:1.0;stroke-dasharray:7.0,7.0;"/><polygon fill="#181818" points="1137.33,638.8669,1128.3186,634.8926,1132.33,638.8812,1128.3415,642.8926,1137.33,638.8669" style="stroke:#181818;stroke-width:1.0;"/><text fill="#000000" font-family="sans-serif" font-size="13" lengthAdjust="spacing" textLength="51" x="962.5" y="635.3638">extends</text></g><!--MD5=[f2fb3038aab4ad20378bcb77ef956032]
reverse link anexarDocumento to preencherRequerimento--><g id="link_anexarDocumento_preencherRequerimento"><path d="M307.71,611.0969 C396.96,617.0669 535.87,626.3469 629.66,632.6169 " fill="none" id="anexarDocumento-backto-preencherRequerimento" style="stroke:#181818;stroke-width:1.0;stroke-dasharray:7.0,7.0;"/><polygon fill="#181818" points="302.7,610.7569,311.4175,615.3401,307.6892,611.0857,311.9436,607.3574,302.7,610.7569" style="stroke:#181818;stroke-width:1.0;"/><text fill="#000000" font-family="sans-serif" font-size="13" lengthAdjust="spacing" textLength="45" x="451" y="617.3638">include</text></g><!--MD5=[c11af50ecb8dd34eccb269efe61c47c8]
reverse link anexarDocumento to revisarRequerimento--><g id="link_anexarDocumento_revisarRequerimento"><path d="M309.21,600.9669 C350.97,599.1269 401.54,597.1969 447,596.2969 C560.87,594.0269 1361.74,567.7769 1472,596.2969 C1517.26,608.0069 1520.73,629.6069 1564,647.2969 C1605.46,664.2469 1653.08,678.1569 1693.72,688.4669 " fill="none" id="anexarDocumento-backto-revisarRequerimento" style="stroke:#181818;stroke-width:1.0;stroke-dasharray:7.0,7.0;"/><polygon fill="#181818" points="304.16,601.1969,313.3235,604.8067,309.1554,600.9822,312.9799,596.8141,304.16,601.1969" style="stroke:#181818;stroke-width:1.0;"/><text fill="#000000" font-family="sans-serif" font-size="13" lengthAdjust="spacing" textLength="51" x="962.5" y="580.3638">extends</text></g><!--MD5=[e149b7154462a5d2ebfe676a9df89f6d]
link monitorarRequerimento to detalharRequerimento--><g id="link_monitorarRequerimento_detalharRequerimento"><path d="M836.14,720.8869 C925.73,720.5369 1053.99,720.0469 1142.97,719.6969 " fill="none" id="monitorarRequerimento-to-detalharRequerimento" style="stroke:#181818;stroke-width:1.0;stroke-dasharray:7.0,7.0;"/><polygon fill="#181818" points="1147.97,719.6769,1138.9473,715.7284,1142.9701,719.7054,1138.993,723.7282,1147.97,719.6769" style="stroke:#181818;stroke-width:1.0;"/><text fill="#000000" font-family="sans-serif" font-size="13" lengthAdjust="spacing" textLength="51" x="962.5" y="716.3638">extends</text></g><!--MD5=[3a002cb8db56e53478e2761dd980e858]
link detalharRequerimento to revisarRequerimento--><g id="link_detalharRequerimento_revisarRequerimento"><path d="M1344.75,717.4969 C1429.85,715.9269 1554.43,713.6169 1649.86,711.8569 " fill="none" id="detalharRequerimento-to-revisarRequerimento" style="stroke:#181818;stroke-width:1.0;stroke-dasharray:7.0,7.0;"/><polygon fill="#181818" points="1654.96,711.7569,1645.8818,707.9376,1649.961,711.8569,1646.0418,715.936,1654.96,711.7569" style="stroke:#181818;stroke-width:1.0;"/><text fill="#000000" font-family="sans-serif" font-size="13" lengthAdjust="spacing" textLength="51" x="1481.5" y="710.3638">extends</text></g><!--MD5=[ff8151b038706487e5b1f1a5652a6857]
link listarRequerimentos to detalharRequerimento--><g id="link_listarRequerimentos_detalharRequerimento"><path d="M805.69,792.0269 C900.15,776.4069 1062.92,749.4869 1161.74,733.1469 " fill="none" id="listarRequerimentos-to-detalharRequerimento" style="stroke:#181818;stroke-width:1.0;stroke-dasharray:7.0,7.0;"/><polygon fill="#181818" points="1166.69,732.3269,1157.1583,729.8474,1161.7569,733.1419,1158.4624,737.7404,1166.69,732.3269" style="stroke:#181818;stroke-width:1.0;"/><text fill="#000000" font-family="sans-serif" font-size="13" lengthAdjust="spacing" textLength="51" x="962.5" y="755.3638">extends</text></g><!--MD5=[dc8f0e45d354118f5249a770537758fb]
link listarRequerimentos to excluirRequerimento--><g id="link_listarRequerimentos_excluirRequerimento"><path d="M809.01,815.4569 C904.2,829.1569 1065.01,852.3169 1162.61,866.3669 " fill="none" id="listarRequerimentos-to-excluirRequerimento" style="stroke:#181818;stroke-width:1.0;stroke-dasharray:7.0,7.0;"/><polygon fill="#181818" points="1167.78,867.1069,1159.4446,861.8608,1162.8314,866.3918,1158.3004,869.7785,1167.78,867.1069" style="stroke:#181818;stroke-width:1.0;"/><text fill="#000000" font-family="sans-serif" font-size="13" lengthAdjust="spacing" textLength="51" x="962.5" y="834.3638">extends</text></g><!--MD5=[17c91b4fc090be155595cb96aee07b81]
link listarRequerimentos to pesquisarRequerimento--><g id="link_listarRequerimentos_pesquisarRequerimento"><path d="M822.24,807.2169 C864.42,808.4269 915.27,809.6969 961,810.2969 C985,810.6069 991.01,810.8669 1015,810.2969 C1056.3,809.3169 1101.73,807.3369 1141.26,805.3269 " fill="none" id="listarRequerimentos-to-pesquisarRequerimento" style="stroke:#181818;stroke-width:1.0;stroke-dasharray:7.0,7.0;"/><polygon fill="#181818" points="1146.55,805.0569,1137.3559,801.5258,1141.5566,805.3144,1137.768,809.5151,1146.55,805.0569" style="stroke:#181818;stroke-width:1.0;"/><text fill="#000000" font-family="sans-serif" font-size="13" lengthAdjust="spacing" textLength="45" x="965.5" y="806.3638">include</text></g><!--MD5=[2625fec057042f2564a2e44daaf1a41a]
link detalharRequerimento to detalharAnaliseReaproveitamento--><g id="link_detalharRequerimento_detalharAnaliseReaproveitamento"><path d="M1327.01,706.6169 C1370.07,699.3769 1424.12,689.6869 1472,679.2969 C1546.57,663.1169 1630.19,641.5369 1692.66,624.7069 " fill="none" id="detalharRequerimento-to-detalharAnaliseReaproveitamento" style="stroke:#181818;stroke-width:1.0;stroke-dasharray:7.0,7.0;"/><polygon fill="#181818" points="1697.5,623.4069,1687.7696,621.8842,1692.6719,624.7067,1689.8494,629.6091,1697.5,623.4069" style="stroke:#181818;stroke-width:1.0;"/><text fill="#000000" font-family="sans-serif" font-size="13" lengthAdjust="spacing" textLength="51" x="1481.5" y="662.3638">extends</text></g><!--MD5=[e53f4b15405b2642e54dee530157869e]
reverse link listarSolicitacao to escolaridade--><g id="link_listarSolicitacao_escolaridade"><path d="M730.5,1184.0469 C730.5,1167.8069 730.5,1151.5569 730.5,1135.3069 " fill="none" id="listarSolicitacao-backto-escolaridade" style="stroke:#181818;stroke-width:1.0;"/><polygon fill="#181818" points="730.5,1189.0969,734.5,1180.0969,730.5,1184.0969,726.5,1180.0969,730.5,1189.0969" style="stroke:#181818;stroke-width:1.0;"/></g><!--MD5=[ca40c1b18f644e4215be7ae725c53c14]
reverse link monitorarSolicitacao to escolaridade--><g id="link_monitorarSolicitacao_escolaridade"><path d="M373.52,1131.5969 C481.14,1121.2269 617.89,1108.0569 686.34,1101.4569 " fill="none" id="monitorarSolicitacao-backto-escolaridade" style="stroke:#181818;stroke-width:1.0;"/><polygon fill="#181818" points="368.42,1132.0869,377.7654,1135.1954,373.3964,1131.6021,376.9897,1127.2331,368.42,1132.0869" style="stroke:#181818;stroke-width:1.0;"/></g><!--MD5=[1b11c04488e12d2485f188abde6c8a61]
reverse link listarSolicitacao to pesquisarSolicitacao--><g id="link_listarSolicitacao_pesquisarSolicitacao"><path d="M847.35,1245.7369 C930.84,1262.6269 1043.15,1285.3569 1127.2,1302.3569 " fill="none" id="listarSolicitacao-backto-pesquisarSolicitacao" style="stroke:#181818;stroke-width:1.0;stroke-dasharray:7.0,7.0;"/><polygon fill="#181818" points="842.4,1244.7369,850.4217,1250.4512,847.2996,1245.7339,852.0169,1242.6118,842.4,1244.7369" style="stroke:#181818;stroke-width:1.0;"/><text fill="#000000" font-family="sans-serif" font-size="13" lengthAdjust="spacing" textLength="52" x="962" y="1266.3638">includes</text></g><!--MD5=[e5da87fdf38d9b871dad75feedcff2de]
link listarSolicitacao to detalharSolicitacao--><g id="link_listarSolicitacao_detalharSolicitacao"><path d="M882.59,1222.2969 C945.39,1222.2969 1018.42,1222.2969 1082.43,1222.2969 " fill="none" id="listarSolicitacao-to-detalharSolicitacao" style="stroke:#181818;stroke-width:1.0;stroke-dasharray:7.0,7.0;"/><polygon fill="#181818" points="1087.81,1222.2969,1078.81,1218.2969,1082.81,1222.2969,1078.81,1226.2969,1087.81,1222.2969" style="stroke:#181818;stroke-width:1.0;"/><text fill="#000000" font-family="sans-serif" font-size="13" lengthAdjust="spacing" textLength="51" x="962.5" y="1218.3638">extends</text></g><!--MD5=[7eabbf0edd8be2cf4e1128b28dd3f720]
reverse link detalharSolicitacao to analisarDocumentacao--><g id="link_detalharSolicitacao_analisarDocumentacao"><path d="M1388.83,1240.0769 C1451.89,1248.0069 1527.18,1257.4869 1595.28,1266.0469 " fill="none" id="detalharSolicitacao-backto-analisarDocumentacao" style="stroke:#181818;stroke-width:1.0;stroke-dasharray:7.0,7.0;"/><polygon fill="#181818" points="1383.54,1239.4169,1391.9672,1244.5142,1388.5005,1240.0441,1392.9707,1236.5774,1383.54,1239.4169" style="stroke:#181818;stroke-width:1.0;"/><text fill="#000000" font-family="sans-serif" font-size="13" lengthAdjust="spacing" textLength="52" x="1481" y="1247.3638">includes</text></g><!--MD5=[c3a39b874203c7fb3b7a5e65ca9b67fc]
reverse link detalharSolicitacao to solicitarRevisao--><g id="link_detalharSolicitacao_solicitarRevisao"><path d="M1394.33,1206.8169 C1460.85,1199.7969 1540.08,1191.4469 1609.96,1184.0769 " fill="none" id="detalharSolicitacao-backto-solicitarRevisao" style="stroke:#181818;stroke-width:1.0;stroke-dasharray:7.0,7.0;"/><polygon fill="#181818" points="1389.16,1207.3569,1398.5238,1210.4095,1394.1335,1206.8424,1397.7006,1202.452,1389.16,1207.3569" style="stroke:#181818;stroke-width:1.0;"/><text fill="#000000" font-family="sans-serif" font-size="13" lengthAdjust="spacing" textLength="51" x="1481.5" y="1187.3638">extends</text></g><!--MD5=[824233bb8f60973582f47ed3fd9b2936]
link escolaridade to listarAnalisesReaproveitamento--><g id="link_escolaridade_listarAnalisesReaproveitamento"><path d="M774.88,1089.5369 C853.16,1075.5169 1020.35,1045.5969 1132.88,1025.4569 " fill="none" id="escolaridade-to-listarAnalisesReaproveitamento" style="stroke:#181818;stroke-width:1.0;"/><polygon fill="#181818" points="1137.86,1024.5669,1128.2944,1022.2218,1132.9388,1025.4513,1129.7094,1030.0957,1137.86,1024.5669" style="stroke:#181818;stroke-width:1.0;"/></g><!--MD5=[e12c1a81a70349cd8c10f1fdfc45dbdb]
reverse link monitorarAnalise to escolaridade--><g id="link_monitorarAnalise_escolaridade"><path d="M360.11,1058.0669 C469.47,1069.6869 614.86,1085.1269 686.23,1092.6969 " fill="none" id="monitorarAnalise-backto-escolaridade" style="stroke:#181818;stroke-width:1.0;"/><polygon fill="#181818" points="354.93,1057.5169,363.4567,1062.446,359.902,1058.0455,364.3025,1054.4908,354.93,1057.5169" style="stroke:#181818;stroke-width:1.0;"/></g><!--MD5=[57ce602cf377ec2fcc219c94c3992590]
link listarAnalisesReaproveitamento to processarAnaliseReaproveitamento--><g id="link_listarAnalisesReaproveitamento_processarAnaliseReaproveitamento"><path d="M1386.69,1006.3269 C1476.15,1006.9869 1590.89,1007.8369 1674.76,1008.4569 " fill="none" id="listarAnalisesReaproveitamento-to-processarAnaliseReaproveitamento" style="stroke:#181818;stroke-width:1.0;stroke-dasharray:7.0,7.0;"/><polygon fill="#181818" points="1679.98,1008.4969,1671.003,1004.4455,1674.9801,1008.4683,1670.9573,1012.4454,1679.98,1008.4969" style="stroke:#181818;stroke-width:1.0;"/><text fill="#000000" font-family="sans-serif" font-size="13" lengthAdjust="spacing" textLength="51" x="1481.5" y="1002.3638">extends</text></g><!--MD5=[6ea1eb09bf4bb31591119ffb2c68f3a1]
link listarAnalisesReaproveitamento to detalharAnaliseReaproveitamento--><g id="link_listarAnalisesReaproveitamento_detalharAnaliseReaproveitamento"><path d="M1348.5,984.3369 C1391.39,970.9169 1439,949.3869 1472,915.2969 C1482.4,904.5469 1553.06,672.4969 1564,662.2969 C1588.89,639.1069 1621.6,624.2469 1654.32,614.7369 " fill="none" id="listarAnalisesReaproveitamento-to-detalharAnaliseReaproveitamento" style="stroke:#181818;stroke-width:1.0;stroke-dasharray:7.0,7.0;"/><polygon fill="#181818" points="1659.14,613.3769,1649.3874,612.0033,1654.3324,614.7505,1651.5852,619.6955,1659.14,613.3769" style="stroke:#181818;stroke-width:1.0;"/><text fill="#000000" font-family="sans-serif" font-size="13" lengthAdjust="spacing" textLength="51" x="1481.5" y="742.3638">extends</text></g><!--MD5=[1e15aafa9369a5c016bab9207261dfb7]
link detalharAnaliseReaproveitamento to consultarParecer--><g id="link_detalharAnaliseReaproveitamento_consultarParecer"><path d="M1907.63,617.3269 C1943.83,626.8869 1982.42,641.1369 2014,662.2969 C2136.3,744.2469 2229.14,898.1669 2268.02,970.2269 " fill="none" id="detalharAnaliseReaproveitamento-to-consultarParecer" style="stroke:#181818;stroke-width:1.0;stroke-dasharray:7.0,7.0;"/><polygon fill="#181818" points="2270.5,974.8469,2269.7892,965.0237,2268.1448,970.4363,2262.7322,968.792,2270.5,974.8469" style="stroke:#181818;stroke-width:1.0;"/><text fill="#000000" font-family="sans-serif" font-size="13" lengthAdjust="spacing" textLength="52" x="2045" y="687.3638">includes</text></g><!--MD5=[f9f0b895dff7913cf86d89593cb18d5b]
reverse link pesquisarAnaliseReaproveitamento to listarAnalisesReaproveitamento--><g id="link_pesquisarAnaliseReaproveitamento_listarAnalisesReaproveitamento"><path d="M1246.5,1082.6169 C1246.5,1067.5269 1246.5,1050.3669 1246.5,1036.0469 " fill="none" id="pesquisarAnaliseReaproveitamento-backto-listarAnalisesReaproveitamento" style="stroke:#181818;stroke-width:1.0;stroke-dasharray:7.0,7.0;"/><polygon fill="#181818" points="1246.5,1087.6469,1250.5,1078.6469,1246.5,1082.6469,1242.5,1078.6469,1246.5,1087.6469" style="stroke:#181818;stroke-width:1.0;"/><text fill="#000000" font-family="sans-serif" font-size="13" lengthAdjust="spacing" textLength="51" x="1209.5" y="1066.3638">extends</text></g><!--MD5=[9cd1163be45e0e1f1fca431f27b5dc0c]
reverse link processarAnaliseReaproveitamento to solicitarParecer--><g id="link_processarAnaliseReaproveitamento_solicitarParecer"><path d="M1874.74,1026.4869 C1959.44,1043.6669 2089.93,1070.1269 2181.56,1088.7069 " fill="none" id="processarAnaliseReaproveitamento-backto-solicitarParecer" style="stroke:#181818;stroke-width:1.0;stroke-dasharray:7.0,7.0;"/><polygon fill="#181818" points="1869.74,1025.4669,1877.7744,1031.1633,1874.6418,1026.453,1879.3521,1023.3204,1869.74,1025.4669" style="stroke:#181818;stroke-width:1.0;"/><text fill="#000000" font-family="sans-serif" font-size="13" lengthAdjust="spacing" textLength="51" x="2045.5" y="1058.3638">extends</text></g><!--MD5=[29b1c2a7e2d4e929ef2af64df5a63c1e]
link processarAnaliseReaproveitamento to consultarParecer--><g id="link_processarAnaliseReaproveitamento_consultarParecer"><path d="M1898.06,1009.2969 C1963.57,1009.2969 2048.49,1009.2969 2122.34,1009.2969 " fill="none" id="processarAnaliseReaproveitamento-to-consultarParecer" style="stroke:#181818;stroke-width:1.0;stroke-dasharray:7.0,7.0;"/><polygon fill="#181818" points="2127.64,1009.2969,2118.64,1005.2969,2122.64,1009.2969,2118.64,1013.2969,2127.64,1009.2969" style="stroke:#181818;stroke-width:1.0;"/><text fill="#000000" font-family="sans-serif" font-size="13" lengthAdjust="spacing" textLength="52" x="2045" y="1005.3638">includes</text></g><!--MD5=[722d33ddb51a057df96f0b85f680fb64]
link coordenacao to monitorarParecer--><g id="link_coordenacao_monitorarParecer"><path d="M265.68,229.7069 C324.19,231.5469 430.65,234.8969 526.83,237.9169 " fill="none" id="coordenacao-to-monitorarParecer" style="stroke:#181818;stroke-width:1.0;"/><polygon fill="#181818" points="531.99,238.0869,523.1201,233.8061,526.9925,237.9298,522.8688,241.8022,531.99,238.0869" style="stroke:#181818;stroke-width:1.0;"/></g><!--MD5=[99098e1312bece60cf0136fd61f6507f]
reverse link emitirParecer to monitorarParecer--><g id="link_emitirParecer_monitorarParecer"><path d="M319.41,427.0369 C350.68,419.4269 385.35,410.7469 417,402.2969 C454.1,392.3969 471.48,404.0069 500,378.2969 C526.36,354.5369 503.77,328.1969 530,304.2969 C544.57,291.0169 561.98,280.6769 580.36,272.6269 " fill="none" id="emitirParecer-backto-monitorarParecer" style="stroke:#181818;stroke-width:1.0;stroke-dasharray:7.0,7.0;"/><polygon fill="#181818" points="314.42,428.2469,324.1119,429.9984,319.2774,427.0611,322.2146,422.2266,314.42,428.2469" style="stroke:#181818;stroke-width:1.0;"/><text fill="#000000" font-family="sans-serif" font-size="13" lengthAdjust="spacing" textLength="51" x="448" y="374.3638">extends</text></g><!--MD5=[1e14c0c314f6a66f20d95253941b30e7]
reverse link emitirParecer to detalharAnaliseReaproveitamento--><g id="link_emitirParecer_detalharAnaliseReaproveitamento"><path d="M345.82,465.8669 C378.71,469.7869 414.17,473.8569 447,477.2969 C886.4,523.3569 1407.92,567.3569 1650.81,587.2369 " fill="none" id="emitirParecer-backto-detalharAnaliseReaproveitamento" style="stroke:#181818;stroke-width:1.0;stroke-dasharray:7.0,7.0;"/><polygon fill="#181818" points="340.56,465.2369,349.0302,470.2625,345.5257,465.8219,349.9662,462.3174,340.56,465.2369" style="stroke:#181818;stroke-width:1.0;"/><text fill="#000000" font-family="sans-serif" font-size="13" lengthAdjust="spacing" textLength="51" x="962.5" y="525.3638">extends</text></g><!--MD5=[46bf045c67155904ed8032b0d4f8a290]
reverse link detalharParecer to monitorarParecer--><g id="link_detalharParecer_monitorarParecer"><path d="M371.21,314.0469 C437.77,301.0969 515.83,285.8969 582.07,272.9969 " fill="none" id="detalharParecer-backto-monitorarParecer" style="stroke:#181818;stroke-width:1.0;stroke-dasharray:7.0,7.0;"/><polygon fill="#181818" points="366.04,315.0569,375.6387,317.2625,370.9478,314.101,374.1093,309.4101,366.04,315.0569" style="stroke:#181818;stroke-width:1.0;"/><text fill="#000000" font-family="sans-serif" font-size="13" lengthAdjust="spacing" textLength="51" x="448" y="287.3638">extends</text></g><!--MD5=[eb9922ee6aae2a102718d9efce1a99f3]
link monitorarParecer to pesquisarParecer--><g id="link_monitorarParecer_pesquisarParecer"><path d="M878.1,273.1069 C945.34,286.3169 1025.03,301.9769 1092.97,315.3269 " fill="none" id="monitorarParecer-to-pesquisarParecer" style="stroke:#181818;stroke-width:1.0;stroke-dasharray:7.0,7.0;"/><polygon fill="#181818" points="1098.26,316.3669,1090.2097,310.693,1093.3555,315.3945,1088.654,318.5403,1098.26,316.3669" style="stroke:#181818;stroke-width:1.0;"/><text fill="#000000" font-family="sans-serif" font-size="13" lengthAdjust="spacing" textLength="45" x="965.5" y="288.3638">include</text></g><!--MD5=[5e99ce64fee3363f863fa7524e97ee9e]
link detalharParecer to detalharAnaliseReaproveitamento--><g id="link_detalharParecer_detalharAnaliseReaproveitamento"><path d="M331.98,377.8869 C368.35,388.2369 409.14,398.8169 447,406.2969 C897.06,495.2669 1019.71,451.4769 1472,528.2969 C1544.07,540.5369 1624.49,558.4169 1686.17,573.0369 " fill="none" id="detalharParecer-to-detalharAnaliseReaproveitamento" style="stroke:#181818;stroke-width:1.0;stroke-dasharray:7.0,7.0;"/><polygon fill="#181818" points="1691.33,574.2669,1683.502,568.29,1686.4661,573.1081,1681.648,576.0722,1691.33,574.2669" style="stroke:#181818;stroke-width:1.0;"/><text fill="#000000" font-family="sans-serif" font-size="13" lengthAdjust="spacing" textLength="45" x="965.5" y="469.3638">include</text></g><!--MD5=[9074d93b7826790edd3cb80878d367c2]
link detalharParecer to solicitarParecerDocente--><g id="link_detalharParecer_solicitarParecerDocente"><path d="M414.69,349.7769 C459.01,351.2569 505.94,352.8269 549.65,354.2869 " fill="none" id="detalharParecer-to-solicitarParecerDocente" style="stroke:#181818;stroke-width:1.0;stroke-dasharray:7.0,7.0;"/><polygon fill="#181818" points="554.69,354.4569,545.8201,350.1761,549.6925,354.2998,545.5688,358.1722,554.69,354.4569" style="stroke:#181818;stroke-width:1.0;"/><text fill="#000000" font-family="sans-serif" font-size="13" lengthAdjust="spacing" textLength="51" x="448" y="347.3638">extends</text></g><!--MD5=[7717e2bbaf54ed904153c61b184af4f3]
link docente to monitorarParecerDocente--><g id="link_docente_monitorarParecerDocente"><path d="M250.17,117.3569 C306.2,117.4669 433.04,117.7169 542.17,117.9269 " fill="none" id="docente-to-monitorarParecerDocente" style="stroke:#181818;stroke-width:1.0;"/><polygon fill="#181818" points="547.36,117.9369,538.3715,113.9112,542.36,117.9226,538.3486,121.9111,547.36,117.9369" style="stroke:#181818;stroke-width:1.0;"/></g><!--MD5=[450232c273fec2e65f3ce5eb4fbc2ebc]
link monitorarParecerDocente to pesquisarParecerDocente--><g id="link_monitorarParecerDocente_pesquisarParecerDocente"><path d="M860.21,145.8369 C936.44,162.1569 1032.94,182.8069 1110.28,199.3569 " fill="none" id="monitorarParecerDocente-to-pesquisarParecerDocente" style="stroke:#181818;stroke-width:1.0;stroke-dasharray:7.0,7.0;"/><polygon fill="#181818" points="1115.35,200.4469,1107.3833,194.6563,1110.4602,199.4031,1105.7133,202.48,1115.35,200.4469" style="stroke:#181818;stroke-width:1.0;"/><text fill="#000000" font-family="sans-serif" font-size="13" lengthAdjust="spacing" textLength="45" x="965.5" y="166.3638">include</text></g><!--MD5=[640f2ad13b1c2cbf8109a8998cca4c8d]
link monitorarParecerDocente to emitirParecerDocente--><g id="link_monitorarParecerDocente_emitirParecerDocente"><path d="M913.8,117.9469 C965.01,117.8469 1020.56,117.7369 1071.29,117.6369 " fill="none" id="monitorarParecerDocente-to-emitirParecerDocente" style="stroke:#181818;stroke-width:1.0;stroke-dasharray:7.0,7.0;"/><polygon fill="#181818" points="1076.5,117.6269,1067.5,113.6269,1071.5,117.6269,1067.5,121.6269,1076.5,117.6269" style="stroke:#181818;stroke-width:1.0;"/><text fill="#000000" font-family="sans-serif" font-size="13" lengthAdjust="spacing" textLength="51" x="962.5" y="114.3638">extends</text></g><!--MD5=[23acc5c021fc4704e65c2b032d8f290c]
link emitirParecerDocente to detalharAnaliseReaproveitamento--><g id="link_emitirParecerDocente_detalharAnaliseReaproveitamento"><path d="M1392.01,136.3569 C1420.04,144.2769 1448.1,155.4769 1472,171.2969 C1626.37,273.5169 1732.95,477.9969 1771.77,561.4969 " fill="none" id="emitirParecerDocente-to-detalharAnaliseReaproveitamento" style="stroke:#181818;stroke-width:1.0;stroke-dasharray:7.0,7.0;"/><polygon fill="#181818" points="1774.01,566.3469,1773.8644,556.4991,1771.912,561.8083,1766.6028,559.8559,1774.01,566.3469" style="stroke:#181818;stroke-width:1.0;"/><text fill="#000000" font-family="sans-serif" font-size="13" lengthAdjust="spacing" textLength="45" x="1484.5" y="176.3638">include</text></g><!--MD5=[bc0416f70706a59809287b1712bf4ad9]
@startuml Visão Geral
    title <b>Visão Geral do Processo de Reaproveitamento de Disciplinas</b>

    !includesub reaproveitamento-disciplina-visao-discente.puml!DISC
    !includesub reaproveitamento-disciplina-visao-escolaridade.puml!ESCO
    !includesub reaproveitamento-disciplina-visao-coordenacao.puml!COORD
    
@enduml

@startuml Visão Geral
    title <b>Visão Geral do Processo de Reaproveitamento de Disciplinas</b>


    left to right direction
    rectangle Discente {
        "Discente" as aluno

        (Preencher Requerimento) as preencherRequerimento
        (Listar Requerimentos) as listarRequerimentos
        (Excluir Requerimento) as excluirRequerimento
        (Solicitar Reaproveitamento) as solicitaReaproveitamento
        (Anexar Documento) as anexarDocumento    
        (Monitorar Requerimentos) as monitorarRequerimento
        (Detalhar Requerimento) as detalharRequerimento
        (Pesquisar Requerimento) as pesquisarRequerimento
        (Revisar Pendências Requerimento) as revisarRequerimento
        (Detalhar Analise de Reaproveitamento) as detalharAnaliseReaproveitamento

        aluno - -> preencherRequerimento
        aluno - -> monitorarRequerimento
        aluno - -> listarRequerimentos

        solicitaReaproveitamento <.up. preencherRequerimento  : extends
        preencherRequerimento .up.> anexarDocumento : include
        revisarRequerimento .left.> anexarDocumento : extends
        monitorarRequerimento ..> detalharRequerimento  : extends
        detalharRequerimento ..> revisarRequerimento  : extends
        listarRequerimentos ..> detalharRequerimento  : extends
        listarRequerimentos ..> excluirRequerimento  : extends
        listarRequerimentos ..> pesquisarRequerimento  : include
        detalharRequerimento ..> detalharAnaliseReaproveitamento  : extends
    }
    
    left to right direction
    rectangle Escolaridade {
        "Escolaridade" as escolaridade    
        
        (Listar Solicitaçoes de Reaproveitamento) as listarSolicitacao
        (Receber Solicitação de Reaproveitamento) as receberSolicitacao
        (Pesquisar Solicitação de Reaproveitamento) as pesquisarSolicitacao
        (Detalhar Solicitação de Reaproveitamento) as detalharSolicitacao
        (Monitorar Solicitação de Reaproveitamento) as monitorarSolicitacao
        (Analisar Documentacao de Solicitaçoes de Reaproveitamento) as analisarDocumentacao
        (Solicitar Revisão de Solicitaçoes de Reaproveitamento) as solicitarRevisao

        escolaridade -left-> listarSolicitacao
        escolaridade -up-> monitorarSolicitacao
        
        pesquisarSolicitacao .up.> listarSolicitacao  : includes
        detalharSolicitacao <.up. listarSolicitacao  : extends
        detalharSolicitacao <.. analisarDocumentacao : includes
        detalharSolicitacao <.. solicitarRevisao : extends

        (Listar Analises de Reaproveitamento) as listarAnalisesReaproveitamento
        (Analisar Reaproveitamento) as processarAnaliseReaproveitamento
        (Detalhar Analise de Reaproveitamento) as detalharAnaliseReaproveitamento
        (Pesquisar Analise de Reaproveitamento) as pesquisarAnaliseReaproveitamento
        (Solicitar Parecer de Reaproveitamento) as solicitarParecer
        (Consultar Pareceres de Reaproveitamento) as consultarParecer
        (Monitorar Analise de Reaproveitamento) as monitorarAnalise

        escolaridade - -> listarAnalisesReaproveitamento
        escolaridade -up-> monitorarAnalise

        listarAnalisesReaproveitamento ..> processarAnaliseReaproveitamento : extends
        detalharAnaliseReaproveitamento <.up. listarAnalisesReaproveitamento  : extends
        detalharAnaliseReaproveitamento ..> consultarParecer : includes
        pesquisarAnaliseReaproveitamento <.right. listarAnalisesReaproveitamento  : extends
        processarAnaliseReaproveitamento <.. solicitarParecer : extends
        processarAnaliseReaproveitamento ..> consultarParecer : includes
        
    }
    left to right direction
    rectangle Coordenações {
        "Coordenador" as coordenacao
        "Docente" as docente
        (Monitorar Solicitação de Parecer de Reaproveitamento) as monitorarParecer
        (Pesquisar Solicitação de Parecer de Reaproveitamento) as pesquisarParecer
        (Detalhar Solicitação de Parecer de Reaproveitamento) as detalharParecer
        (Solicitar Parecer Docente de Reaproveitamento) as solicitarParecerDocente
        (Emitir Parecer de Reaproveitamento) as emitirParecer

        (Monitorar Parecer Docente de Reaproveitamento) as monitorarParecerDocente
        (Emitir Parecer Docente de Reaproveitamento) as emitirParecerDocente
        (Pesquisar Parecer Docente de Reaproveitamento) as pesquisarParecerDocente

        (Detalhar Analise de Reaproveitamento) as detalharAnaliseReaproveitamento

        coordenacao - -> monitorarParecer
        emitirParecer <.. monitorarParecer : extends
        emitirParecer <.. detalharAnaliseReaproveitamento : extends
        detalharParecer <.. monitorarParecer : extends
        monitorarParecer ..> pesquisarParecer : include
        detalharParecer ..> detalharAnaliseReaproveitamento : include
        detalharParecer ..> solicitarParecerDocente : extends

        docente - -> monitorarParecerDocente
        monitorarParecerDocente ..> pesquisarParecerDocente : include
        monitorarParecerDocente ..> emitirParecerDocente : extends
        emitirParecerDocente ..> detalharAnaliseReaproveitamento : include
    } 
    
@enduml

PlantUML version 1.2022.3(Tue Mar 29 13:10:57 BRT 2022)
(GPL source distribution)
Java Runtime: OpenJDK Runtime Environment
JVM: Eclipse OpenJ9 VM
Default Encoding: UTF-8
Language: pt
Country: BR
--></g></svg>